<mxfile host="Electron" modified="2023-12-13T12:44:57.154Z" agent="Mozilla/5.0 (Macintosh; Intel Mac OS X 10_15_7) AppleWebKit/537.36 (KHTML, like Gecko) draw.io/21.7.5 Chrome/114.0.5735.289 Electron/25.8.1 Safari/537.36" etag="TI9VNDf58uUjuH4ZIhs7" version="21.7.5" type="device" pages="2">
  <diagram name="Database" id="Xf_RUGT1IbesdHqzEBA2">
    <mxGraphModel dx="1193" dy="909" grid="1" gridSize="10" guides="1" tooltips="1" connect="1" arrows="1" fold="1" page="1" pageScale="1" pageWidth="1300" pageHeight="1000" math="0" shadow="0">
      <root>
        <mxCell id="0" />
        <mxCell id="1" parent="0" />
        <mxCell id="oNRNMGum88ENgTCuDUTT-68" value="Gudang" style="shape=table;startSize=30;container=1;collapsible=1;childLayout=tableLayout;fixedRows=1;rowLines=0;fontStyle=1;align=center;resizeLast=1;html=1;fillColor=#fad7ac;strokeColor=#b46504;" parent="1" vertex="1">
          <mxGeometry x="165" y="735" width="180" height="180" as="geometry">
            <mxRectangle x="290" y="720" width="90" height="30" as="alternateBounds" />
          </mxGeometry>
        </mxCell>
        <mxCell id="oNRNMGum88ENgTCuDUTT-69" value="" style="shape=tableRow;horizontal=0;startSize=0;swimlaneHead=0;swimlaneBody=0;fillColor=none;collapsible=0;dropTarget=0;points=[[0,0.5],[1,0.5]];portConstraint=eastwest;top=0;left=0;right=0;bottom=1;" parent="oNRNMGum88ENgTCuDUTT-68" vertex="1">
          <mxGeometry y="30" width="180" height="30" as="geometry" />
        </mxCell>
        <mxCell id="oNRNMGum88ENgTCuDUTT-70" value="PK" style="shape=partialRectangle;connectable=0;fillColor=none;top=0;left=0;bottom=0;right=0;fontStyle=1;overflow=hidden;whiteSpace=wrap;html=1;" parent="oNRNMGum88ENgTCuDUTT-69" vertex="1">
          <mxGeometry width="30" height="30" as="geometry">
            <mxRectangle width="30" height="30" as="alternateBounds" />
          </mxGeometry>
        </mxCell>
        <mxCell id="oNRNMGum88ENgTCuDUTT-71" value="id_gudang" style="shape=partialRectangle;connectable=0;fillColor=none;top=0;left=0;bottom=0;right=0;align=left;spacingLeft=6;fontStyle=5;overflow=hidden;whiteSpace=wrap;html=1;" parent="oNRNMGum88ENgTCuDUTT-69" vertex="1">
          <mxGeometry x="30" width="150" height="30" as="geometry">
            <mxRectangle width="150" height="30" as="alternateBounds" />
          </mxGeometry>
        </mxCell>
        <mxCell id="oNRNMGum88ENgTCuDUTT-72" value="" style="shape=tableRow;horizontal=0;startSize=0;swimlaneHead=0;swimlaneBody=0;fillColor=none;collapsible=0;dropTarget=0;points=[[0,0.5],[1,0.5]];portConstraint=eastwest;top=0;left=0;right=0;bottom=0;" parent="oNRNMGum88ENgTCuDUTT-68" vertex="1">
          <mxGeometry y="60" width="180" height="30" as="geometry" />
        </mxCell>
        <mxCell id="oNRNMGum88ENgTCuDUTT-73" value="" style="shape=partialRectangle;connectable=0;fillColor=none;top=0;left=0;bottom=0;right=0;editable=1;overflow=hidden;whiteSpace=wrap;html=1;" parent="oNRNMGum88ENgTCuDUTT-72" vertex="1">
          <mxGeometry width="30" height="30" as="geometry">
            <mxRectangle width="30" height="30" as="alternateBounds" />
          </mxGeometry>
        </mxCell>
        <mxCell id="oNRNMGum88ENgTCuDUTT-74" value="kode" style="shape=partialRectangle;connectable=0;fillColor=none;top=0;left=0;bottom=0;right=0;align=left;spacingLeft=6;overflow=hidden;whiteSpace=wrap;html=1;" parent="oNRNMGum88ENgTCuDUTT-72" vertex="1">
          <mxGeometry x="30" width="150" height="30" as="geometry">
            <mxRectangle width="150" height="30" as="alternateBounds" />
          </mxGeometry>
        </mxCell>
        <mxCell id="K_28fzQqX-i3X8EkiXgM-30" value="" style="shape=tableRow;horizontal=0;startSize=0;swimlaneHead=0;swimlaneBody=0;fillColor=none;collapsible=0;dropTarget=0;points=[[0,0.5],[1,0.5]];portConstraint=eastwest;top=0;left=0;right=0;bottom=0;" vertex="1" parent="oNRNMGum88ENgTCuDUTT-68">
          <mxGeometry y="90" width="180" height="30" as="geometry" />
        </mxCell>
        <mxCell id="K_28fzQqX-i3X8EkiXgM-31" value="" style="shape=partialRectangle;connectable=0;fillColor=none;top=0;left=0;bottom=0;right=0;editable=1;overflow=hidden;whiteSpace=wrap;html=1;" vertex="1" parent="K_28fzQqX-i3X8EkiXgM-30">
          <mxGeometry width="30" height="30" as="geometry">
            <mxRectangle width="30" height="30" as="alternateBounds" />
          </mxGeometry>
        </mxCell>
        <mxCell id="K_28fzQqX-i3X8EkiXgM-32" value="nama" style="shape=partialRectangle;connectable=0;fillColor=none;top=0;left=0;bottom=0;right=0;align=left;spacingLeft=6;overflow=hidden;whiteSpace=wrap;html=1;" vertex="1" parent="K_28fzQqX-i3X8EkiXgM-30">
          <mxGeometry x="30" width="150" height="30" as="geometry">
            <mxRectangle width="150" height="30" as="alternateBounds" />
          </mxGeometry>
        </mxCell>
        <mxCell id="oNRNMGum88ENgTCuDUTT-75" value="" style="shape=tableRow;horizontal=0;startSize=0;swimlaneHead=0;swimlaneBody=0;fillColor=none;collapsible=0;dropTarget=0;points=[[0,0.5],[1,0.5]];portConstraint=eastwest;top=0;left=0;right=0;bottom=0;" parent="oNRNMGum88ENgTCuDUTT-68" vertex="1">
          <mxGeometry y="120" width="180" height="30" as="geometry" />
        </mxCell>
        <mxCell id="oNRNMGum88ENgTCuDUTT-76" value="" style="shape=partialRectangle;connectable=0;fillColor=none;top=0;left=0;bottom=0;right=0;editable=1;overflow=hidden;whiteSpace=wrap;html=1;" parent="oNRNMGum88ENgTCuDUTT-75" vertex="1">
          <mxGeometry width="30" height="30" as="geometry">
            <mxRectangle width="30" height="30" as="alternateBounds" />
          </mxGeometry>
        </mxCell>
        <mxCell id="oNRNMGum88ENgTCuDUTT-77" value="alamat" style="shape=partialRectangle;connectable=0;fillColor=none;top=0;left=0;bottom=0;right=0;align=left;spacingLeft=6;overflow=hidden;whiteSpace=wrap;html=1;" parent="oNRNMGum88ENgTCuDUTT-75" vertex="1">
          <mxGeometry x="30" width="150" height="30" as="geometry">
            <mxRectangle width="150" height="30" as="alternateBounds" />
          </mxGeometry>
        </mxCell>
        <mxCell id="oNRNMGum88ENgTCuDUTT-78" value="" style="shape=tableRow;horizontal=0;startSize=0;swimlaneHead=0;swimlaneBody=0;fillColor=none;collapsible=0;dropTarget=0;points=[[0,0.5],[1,0.5]];portConstraint=eastwest;top=0;left=0;right=0;bottom=0;" parent="oNRNMGum88ENgTCuDUTT-68" vertex="1">
          <mxGeometry y="150" width="180" height="30" as="geometry" />
        </mxCell>
        <mxCell id="oNRNMGum88ENgTCuDUTT-79" value="" style="shape=partialRectangle;connectable=0;fillColor=none;top=0;left=0;bottom=0;right=0;editable=1;overflow=hidden;whiteSpace=wrap;html=1;" parent="oNRNMGum88ENgTCuDUTT-78" vertex="1">
          <mxGeometry width="30" height="30" as="geometry">
            <mxRectangle width="30" height="30" as="alternateBounds" />
          </mxGeometry>
        </mxCell>
        <mxCell id="oNRNMGum88ENgTCuDUTT-80" value="kapasitas" style="shape=partialRectangle;connectable=0;fillColor=none;top=0;left=0;bottom=0;right=0;align=left;spacingLeft=6;overflow=hidden;whiteSpace=wrap;html=1;" parent="oNRNMGum88ENgTCuDUTT-78" vertex="1">
          <mxGeometry x="30" width="150" height="30" as="geometry">
            <mxRectangle width="150" height="30" as="alternateBounds" />
          </mxGeometry>
        </mxCell>
        <mxCell id="oNRNMGum88ENgTCuDUTT-81" value="Supplier" style="shape=table;startSize=30;container=1;collapsible=1;childLayout=tableLayout;fixedRows=1;rowLines=0;fontStyle=1;align=center;resizeLast=1;html=1;fillColor=#fad7ac;strokeColor=#b46504;" parent="1" vertex="1">
          <mxGeometry x="165" y="500" width="180" height="180" as="geometry">
            <mxRectangle x="140" y="485" width="90" height="30" as="alternateBounds" />
          </mxGeometry>
        </mxCell>
        <mxCell id="oNRNMGum88ENgTCuDUTT-82" value="" style="shape=tableRow;horizontal=0;startSize=0;swimlaneHead=0;swimlaneBody=0;fillColor=none;collapsible=0;dropTarget=0;points=[[0,0.5],[1,0.5]];portConstraint=eastwest;top=0;left=0;right=0;bottom=1;" parent="oNRNMGum88ENgTCuDUTT-81" vertex="1">
          <mxGeometry y="30" width="180" height="30" as="geometry" />
        </mxCell>
        <mxCell id="oNRNMGum88ENgTCuDUTT-83" value="PK" style="shape=partialRectangle;connectable=0;fillColor=none;top=0;left=0;bottom=0;right=0;fontStyle=1;overflow=hidden;whiteSpace=wrap;html=1;" parent="oNRNMGum88ENgTCuDUTT-82" vertex="1">
          <mxGeometry width="30" height="30" as="geometry">
            <mxRectangle width="30" height="30" as="alternateBounds" />
          </mxGeometry>
        </mxCell>
        <mxCell id="oNRNMGum88ENgTCuDUTT-84" value="id_supplier" style="shape=partialRectangle;connectable=0;fillColor=none;top=0;left=0;bottom=0;right=0;align=left;spacingLeft=6;fontStyle=5;overflow=hidden;whiteSpace=wrap;html=1;" parent="oNRNMGum88ENgTCuDUTT-82" vertex="1">
          <mxGeometry x="30" width="150" height="30" as="geometry">
            <mxRectangle width="150" height="30" as="alternateBounds" />
          </mxGeometry>
        </mxCell>
        <mxCell id="K_28fzQqX-i3X8EkiXgM-39" value="" style="shape=tableRow;horizontal=0;startSize=0;swimlaneHead=0;swimlaneBody=0;fillColor=none;collapsible=0;dropTarget=0;points=[[0,0.5],[1,0.5]];portConstraint=eastwest;top=0;left=0;right=0;bottom=0;" vertex="1" parent="oNRNMGum88ENgTCuDUTT-81">
          <mxGeometry y="60" width="180" height="30" as="geometry" />
        </mxCell>
        <mxCell id="K_28fzQqX-i3X8EkiXgM-40" value="" style="shape=partialRectangle;connectable=0;fillColor=none;top=0;left=0;bottom=0;right=0;editable=1;overflow=hidden;whiteSpace=wrap;html=1;" vertex="1" parent="K_28fzQqX-i3X8EkiXgM-39">
          <mxGeometry width="30" height="30" as="geometry">
            <mxRectangle width="30" height="30" as="alternateBounds" />
          </mxGeometry>
        </mxCell>
        <mxCell id="K_28fzQqX-i3X8EkiXgM-41" value="kode" style="shape=partialRectangle;connectable=0;fillColor=none;top=0;left=0;bottom=0;right=0;align=left;spacingLeft=6;overflow=hidden;whiteSpace=wrap;html=1;" vertex="1" parent="K_28fzQqX-i3X8EkiXgM-39">
          <mxGeometry x="30" width="150" height="30" as="geometry">
            <mxRectangle width="150" height="30" as="alternateBounds" />
          </mxGeometry>
        </mxCell>
        <mxCell id="oNRNMGum88ENgTCuDUTT-85" value="" style="shape=tableRow;horizontal=0;startSize=0;swimlaneHead=0;swimlaneBody=0;fillColor=none;collapsible=0;dropTarget=0;points=[[0,0.5],[1,0.5]];portConstraint=eastwest;top=0;left=0;right=0;bottom=0;" parent="oNRNMGum88ENgTCuDUTT-81" vertex="1">
          <mxGeometry y="90" width="180" height="30" as="geometry" />
        </mxCell>
        <mxCell id="oNRNMGum88ENgTCuDUTT-86" value="" style="shape=partialRectangle;connectable=0;fillColor=none;top=0;left=0;bottom=0;right=0;editable=1;overflow=hidden;whiteSpace=wrap;html=1;" parent="oNRNMGum88ENgTCuDUTT-85" vertex="1">
          <mxGeometry width="30" height="30" as="geometry">
            <mxRectangle width="30" height="30" as="alternateBounds" />
          </mxGeometry>
        </mxCell>
        <mxCell id="oNRNMGum88ENgTCuDUTT-87" value="nama" style="shape=partialRectangle;connectable=0;fillColor=none;top=0;left=0;bottom=0;right=0;align=left;spacingLeft=6;overflow=hidden;whiteSpace=wrap;html=1;" parent="oNRNMGum88ENgTCuDUTT-85" vertex="1">
          <mxGeometry x="30" width="150" height="30" as="geometry">
            <mxRectangle width="150" height="30" as="alternateBounds" />
          </mxGeometry>
        </mxCell>
        <mxCell id="oNRNMGum88ENgTCuDUTT-88" value="" style="shape=tableRow;horizontal=0;startSize=0;swimlaneHead=0;swimlaneBody=0;fillColor=none;collapsible=0;dropTarget=0;points=[[0,0.5],[1,0.5]];portConstraint=eastwest;top=0;left=0;right=0;bottom=0;" parent="oNRNMGum88ENgTCuDUTT-81" vertex="1">
          <mxGeometry y="120" width="180" height="30" as="geometry" />
        </mxCell>
        <mxCell id="oNRNMGum88ENgTCuDUTT-89" value="" style="shape=partialRectangle;connectable=0;fillColor=none;top=0;left=0;bottom=0;right=0;editable=1;overflow=hidden;whiteSpace=wrap;html=1;" parent="oNRNMGum88ENgTCuDUTT-88" vertex="1">
          <mxGeometry width="30" height="30" as="geometry">
            <mxRectangle width="30" height="30" as="alternateBounds" />
          </mxGeometry>
        </mxCell>
        <mxCell id="oNRNMGum88ENgTCuDUTT-90" value="alamat" style="shape=partialRectangle;connectable=0;fillColor=none;top=0;left=0;bottom=0;right=0;align=left;spacingLeft=6;overflow=hidden;whiteSpace=wrap;html=1;" parent="oNRNMGum88ENgTCuDUTT-88" vertex="1">
          <mxGeometry x="30" width="150" height="30" as="geometry">
            <mxRectangle width="150" height="30" as="alternateBounds" />
          </mxGeometry>
        </mxCell>
        <mxCell id="oNRNMGum88ENgTCuDUTT-91" value="" style="shape=tableRow;horizontal=0;startSize=0;swimlaneHead=0;swimlaneBody=0;fillColor=none;collapsible=0;dropTarget=0;points=[[0,0.5],[1,0.5]];portConstraint=eastwest;top=0;left=0;right=0;bottom=0;" parent="oNRNMGum88ENgTCuDUTT-81" vertex="1">
          <mxGeometry y="150" width="180" height="30" as="geometry" />
        </mxCell>
        <mxCell id="oNRNMGum88ENgTCuDUTT-92" value="" style="shape=partialRectangle;connectable=0;fillColor=none;top=0;left=0;bottom=0;right=0;editable=1;overflow=hidden;whiteSpace=wrap;html=1;" parent="oNRNMGum88ENgTCuDUTT-91" vertex="1">
          <mxGeometry width="30" height="30" as="geometry">
            <mxRectangle width="30" height="30" as="alternateBounds" />
          </mxGeometry>
        </mxCell>
        <mxCell id="oNRNMGum88ENgTCuDUTT-93" value="telp" style="shape=partialRectangle;connectable=0;fillColor=none;top=0;left=0;bottom=0;right=0;align=left;spacingLeft=6;overflow=hidden;whiteSpace=wrap;html=1;" parent="oNRNMGum88ENgTCuDUTT-91" vertex="1">
          <mxGeometry x="30" width="150" height="30" as="geometry">
            <mxRectangle width="150" height="30" as="alternateBounds" />
          </mxGeometry>
        </mxCell>
        <mxCell id="oNRNMGum88ENgTCuDUTT-94" value="Barang" style="shape=table;startSize=30;container=1;collapsible=1;childLayout=tableLayout;fixedRows=1;rowLines=0;fontStyle=1;align=center;resizeLast=1;html=1;fillColor=#fad7ac;strokeColor=#b46504;" parent="1" vertex="1">
          <mxGeometry x="465" y="680" width="180" height="210" as="geometry">
            <mxRectangle x="390" y="530" width="80" height="30" as="alternateBounds" />
          </mxGeometry>
        </mxCell>
        <mxCell id="oNRNMGum88ENgTCuDUTT-95" value="" style="shape=tableRow;horizontal=0;startSize=0;swimlaneHead=0;swimlaneBody=0;fillColor=none;collapsible=0;dropTarget=0;points=[[0,0.5],[1,0.5]];portConstraint=eastwest;top=0;left=0;right=0;bottom=1;" parent="oNRNMGum88ENgTCuDUTT-94" vertex="1">
          <mxGeometry y="30" width="180" height="30" as="geometry" />
        </mxCell>
        <mxCell id="oNRNMGum88ENgTCuDUTT-96" value="PK" style="shape=partialRectangle;connectable=0;fillColor=none;top=0;left=0;bottom=0;right=0;fontStyle=1;overflow=hidden;whiteSpace=wrap;html=1;" parent="oNRNMGum88ENgTCuDUTT-95" vertex="1">
          <mxGeometry width="30" height="30" as="geometry">
            <mxRectangle width="30" height="30" as="alternateBounds" />
          </mxGeometry>
        </mxCell>
        <mxCell id="oNRNMGum88ENgTCuDUTT-97" value="id_barang" style="shape=partialRectangle;connectable=0;fillColor=none;top=0;left=0;bottom=0;right=0;align=left;spacingLeft=6;fontStyle=5;overflow=hidden;whiteSpace=wrap;html=1;" parent="oNRNMGum88ENgTCuDUTT-95" vertex="1">
          <mxGeometry x="30" width="150" height="30" as="geometry">
            <mxRectangle width="150" height="30" as="alternateBounds" />
          </mxGeometry>
        </mxCell>
        <mxCell id="oNRNMGum88ENgTCuDUTT-221" value="" style="shape=tableRow;horizontal=0;startSize=0;swimlaneHead=0;swimlaneBody=0;fillColor=none;collapsible=0;dropTarget=0;points=[[0,0.5],[1,0.5]];portConstraint=eastwest;top=0;left=0;right=0;bottom=0;" parent="oNRNMGum88ENgTCuDUTT-94" vertex="1">
          <mxGeometry y="60" width="180" height="30" as="geometry" />
        </mxCell>
        <mxCell id="oNRNMGum88ENgTCuDUTT-222" value="FK" style="shape=partialRectangle;connectable=0;fillColor=none;top=0;left=0;bottom=0;right=0;editable=1;overflow=hidden;whiteSpace=wrap;html=1;" parent="oNRNMGum88ENgTCuDUTT-221" vertex="1">
          <mxGeometry width="30" height="30" as="geometry">
            <mxRectangle width="30" height="30" as="alternateBounds" />
          </mxGeometry>
        </mxCell>
        <mxCell id="oNRNMGum88ENgTCuDUTT-223" value="id_gudang" style="shape=partialRectangle;connectable=0;fillColor=none;top=0;left=0;bottom=0;right=0;align=left;spacingLeft=6;overflow=hidden;whiteSpace=wrap;html=1;" parent="oNRNMGum88ENgTCuDUTT-221" vertex="1">
          <mxGeometry x="30" width="150" height="30" as="geometry">
            <mxRectangle width="150" height="30" as="alternateBounds" />
          </mxGeometry>
        </mxCell>
        <mxCell id="K_28fzQqX-i3X8EkiXgM-33" value="" style="shape=tableRow;horizontal=0;startSize=0;swimlaneHead=0;swimlaneBody=0;fillColor=none;collapsible=0;dropTarget=0;points=[[0,0.5],[1,0.5]];portConstraint=eastwest;top=0;left=0;right=0;bottom=0;" vertex="1" parent="oNRNMGum88ENgTCuDUTT-94">
          <mxGeometry y="90" width="180" height="30" as="geometry" />
        </mxCell>
        <mxCell id="K_28fzQqX-i3X8EkiXgM-34" value="" style="shape=partialRectangle;connectable=0;fillColor=none;top=0;left=0;bottom=0;right=0;editable=1;overflow=hidden;whiteSpace=wrap;html=1;" vertex="1" parent="K_28fzQqX-i3X8EkiXgM-33">
          <mxGeometry width="30" height="30" as="geometry">
            <mxRectangle width="30" height="30" as="alternateBounds" />
          </mxGeometry>
        </mxCell>
        <mxCell id="K_28fzQqX-i3X8EkiXgM-35" value="kode" style="shape=partialRectangle;connectable=0;fillColor=none;top=0;left=0;bottom=0;right=0;align=left;spacingLeft=6;overflow=hidden;whiteSpace=wrap;html=1;" vertex="1" parent="K_28fzQqX-i3X8EkiXgM-33">
          <mxGeometry x="30" width="150" height="30" as="geometry">
            <mxRectangle width="150" height="30" as="alternateBounds" />
          </mxGeometry>
        </mxCell>
        <mxCell id="oNRNMGum88ENgTCuDUTT-101" value="" style="shape=tableRow;horizontal=0;startSize=0;swimlaneHead=0;swimlaneBody=0;fillColor=none;collapsible=0;dropTarget=0;points=[[0,0.5],[1,0.5]];portConstraint=eastwest;top=0;left=0;right=0;bottom=0;" parent="oNRNMGum88ENgTCuDUTT-94" vertex="1">
          <mxGeometry y="120" width="180" height="30" as="geometry" />
        </mxCell>
        <mxCell id="oNRNMGum88ENgTCuDUTT-102" value="" style="shape=partialRectangle;connectable=0;fillColor=none;top=0;left=0;bottom=0;right=0;editable=1;overflow=hidden;whiteSpace=wrap;html=1;" parent="oNRNMGum88ENgTCuDUTT-101" vertex="1">
          <mxGeometry width="30" height="30" as="geometry">
            <mxRectangle width="30" height="30" as="alternateBounds" />
          </mxGeometry>
        </mxCell>
        <mxCell id="oNRNMGum88ENgTCuDUTT-103" value="nama" style="shape=partialRectangle;connectable=0;fillColor=none;top=0;left=0;bottom=0;right=0;align=left;spacingLeft=6;overflow=hidden;whiteSpace=wrap;html=1;" parent="oNRNMGum88ENgTCuDUTT-101" vertex="1">
          <mxGeometry x="30" width="150" height="30" as="geometry">
            <mxRectangle width="150" height="30" as="alternateBounds" />
          </mxGeometry>
        </mxCell>
        <mxCell id="oNRNMGum88ENgTCuDUTT-98" value="" style="shape=tableRow;horizontal=0;startSize=0;swimlaneHead=0;swimlaneBody=0;fillColor=none;collapsible=0;dropTarget=0;points=[[0,0.5],[1,0.5]];portConstraint=eastwest;top=0;left=0;right=0;bottom=0;" parent="oNRNMGum88ENgTCuDUTT-94" vertex="1">
          <mxGeometry y="150" width="180" height="30" as="geometry" />
        </mxCell>
        <mxCell id="oNRNMGum88ENgTCuDUTT-99" value="" style="shape=partialRectangle;connectable=0;fillColor=none;top=0;left=0;bottom=0;right=0;editable=1;overflow=hidden;whiteSpace=wrap;html=1;" parent="oNRNMGum88ENgTCuDUTT-98" vertex="1">
          <mxGeometry width="30" height="30" as="geometry">
            <mxRectangle width="30" height="30" as="alternateBounds" />
          </mxGeometry>
        </mxCell>
        <mxCell id="oNRNMGum88ENgTCuDUTT-100" value="deskripsi" style="shape=partialRectangle;connectable=0;fillColor=none;top=0;left=0;bottom=0;right=0;align=left;spacingLeft=6;overflow=hidden;whiteSpace=wrap;html=1;" parent="oNRNMGum88ENgTCuDUTT-98" vertex="1">
          <mxGeometry x="30" width="150" height="30" as="geometry">
            <mxRectangle width="150" height="30" as="alternateBounds" />
          </mxGeometry>
        </mxCell>
        <mxCell id="oNRNMGum88ENgTCuDUTT-104" value="" style="shape=tableRow;horizontal=0;startSize=0;swimlaneHead=0;swimlaneBody=0;fillColor=none;collapsible=0;dropTarget=0;points=[[0,0.5],[1,0.5]];portConstraint=eastwest;top=0;left=0;right=0;bottom=0;" parent="oNRNMGum88ENgTCuDUTT-94" vertex="1">
          <mxGeometry y="180" width="180" height="30" as="geometry" />
        </mxCell>
        <mxCell id="oNRNMGum88ENgTCuDUTT-105" value="" style="shape=partialRectangle;connectable=0;fillColor=none;top=0;left=0;bottom=0;right=0;editable=1;overflow=hidden;whiteSpace=wrap;html=1;" parent="oNRNMGum88ENgTCuDUTT-104" vertex="1">
          <mxGeometry width="30" height="30" as="geometry">
            <mxRectangle width="30" height="30" as="alternateBounds" />
          </mxGeometry>
        </mxCell>
        <mxCell id="oNRNMGum88ENgTCuDUTT-106" value="merek" style="shape=partialRectangle;connectable=0;fillColor=none;top=0;left=0;bottom=0;right=0;align=left;spacingLeft=6;overflow=hidden;whiteSpace=wrap;html=1;" parent="oNRNMGum88ENgTCuDUTT-104" vertex="1">
          <mxGeometry x="30" width="150" height="30" as="geometry">
            <mxRectangle width="150" height="30" as="alternateBounds" />
          </mxGeometry>
        </mxCell>
        <mxCell id="oNRNMGum88ENgTCuDUTT-157" value="User" style="shape=table;startSize=30;container=1;collapsible=1;childLayout=tableLayout;fixedRows=1;rowLines=0;fontStyle=1;align=center;resizeLast=1;html=1;fillColor=#fad7ac;strokeColor=#b46504;" parent="1" vertex="1">
          <mxGeometry x="695" y="210" width="180" height="210" as="geometry">
            <mxRectangle x="380" y="110" width="70" height="30" as="alternateBounds" />
          </mxGeometry>
        </mxCell>
        <mxCell id="oNRNMGum88ENgTCuDUTT-158" value="" style="shape=tableRow;horizontal=0;startSize=0;swimlaneHead=0;swimlaneBody=0;fillColor=none;collapsible=0;dropTarget=0;points=[[0,0.5],[1,0.5]];portConstraint=eastwest;top=0;left=0;right=0;bottom=1;" parent="oNRNMGum88ENgTCuDUTT-157" vertex="1">
          <mxGeometry y="30" width="180" height="30" as="geometry" />
        </mxCell>
        <mxCell id="oNRNMGum88ENgTCuDUTT-159" value="PK" style="shape=partialRectangle;connectable=0;fillColor=none;top=0;left=0;bottom=0;right=0;fontStyle=1;overflow=hidden;whiteSpace=wrap;html=1;" parent="oNRNMGum88ENgTCuDUTT-158" vertex="1">
          <mxGeometry width="30" height="30" as="geometry">
            <mxRectangle width="30" height="30" as="alternateBounds" />
          </mxGeometry>
        </mxCell>
        <mxCell id="oNRNMGum88ENgTCuDUTT-160" value="id_user" style="shape=partialRectangle;connectable=0;fillColor=none;top=0;left=0;bottom=0;right=0;align=left;spacingLeft=6;fontStyle=5;overflow=hidden;whiteSpace=wrap;html=1;" parent="oNRNMGum88ENgTCuDUTT-158" vertex="1">
          <mxGeometry x="30" width="150" height="30" as="geometry">
            <mxRectangle width="150" height="30" as="alternateBounds" />
          </mxGeometry>
        </mxCell>
        <mxCell id="oNRNMGum88ENgTCuDUTT-161" value="" style="shape=tableRow;horizontal=0;startSize=0;swimlaneHead=0;swimlaneBody=0;fillColor=none;collapsible=0;dropTarget=0;points=[[0,0.5],[1,0.5]];portConstraint=eastwest;top=0;left=0;right=0;bottom=0;" parent="oNRNMGum88ENgTCuDUTT-157" vertex="1">
          <mxGeometry y="60" width="180" height="30" as="geometry" />
        </mxCell>
        <mxCell id="oNRNMGum88ENgTCuDUTT-162" value="" style="shape=partialRectangle;connectable=0;fillColor=none;top=0;left=0;bottom=0;right=0;editable=1;overflow=hidden;whiteSpace=wrap;html=1;" parent="oNRNMGum88ENgTCuDUTT-161" vertex="1">
          <mxGeometry width="30" height="30" as="geometry">
            <mxRectangle width="30" height="30" as="alternateBounds" />
          </mxGeometry>
        </mxCell>
        <mxCell id="oNRNMGum88ENgTCuDUTT-163" value="nama" style="shape=partialRectangle;connectable=0;fillColor=none;top=0;left=0;bottom=0;right=0;align=left;spacingLeft=6;overflow=hidden;whiteSpace=wrap;html=1;" parent="oNRNMGum88ENgTCuDUTT-161" vertex="1">
          <mxGeometry x="30" width="150" height="30" as="geometry">
            <mxRectangle width="150" height="30" as="alternateBounds" />
          </mxGeometry>
        </mxCell>
        <mxCell id="oNRNMGum88ENgTCuDUTT-164" value="" style="shape=tableRow;horizontal=0;startSize=0;swimlaneHead=0;swimlaneBody=0;fillColor=none;collapsible=0;dropTarget=0;points=[[0,0.5],[1,0.5]];portConstraint=eastwest;top=0;left=0;right=0;bottom=0;" parent="oNRNMGum88ENgTCuDUTT-157" vertex="1">
          <mxGeometry y="90" width="180" height="30" as="geometry" />
        </mxCell>
        <mxCell id="oNRNMGum88ENgTCuDUTT-165" value="" style="shape=partialRectangle;connectable=0;fillColor=none;top=0;left=0;bottom=0;right=0;editable=1;overflow=hidden;whiteSpace=wrap;html=1;" parent="oNRNMGum88ENgTCuDUTT-164" vertex="1">
          <mxGeometry width="30" height="30" as="geometry">
            <mxRectangle width="30" height="30" as="alternateBounds" />
          </mxGeometry>
        </mxCell>
        <mxCell id="oNRNMGum88ENgTCuDUTT-166" value="alamat" style="shape=partialRectangle;connectable=0;fillColor=none;top=0;left=0;bottom=0;right=0;align=left;spacingLeft=6;overflow=hidden;whiteSpace=wrap;html=1;" parent="oNRNMGum88ENgTCuDUTT-164" vertex="1">
          <mxGeometry x="30" width="150" height="30" as="geometry">
            <mxRectangle width="150" height="30" as="alternateBounds" />
          </mxGeometry>
        </mxCell>
        <mxCell id="oNRNMGum88ENgTCuDUTT-167" value="" style="shape=tableRow;horizontal=0;startSize=0;swimlaneHead=0;swimlaneBody=0;fillColor=none;collapsible=0;dropTarget=0;points=[[0,0.5],[1,0.5]];portConstraint=eastwest;top=0;left=0;right=0;bottom=0;" parent="oNRNMGum88ENgTCuDUTT-157" vertex="1">
          <mxGeometry y="120" width="180" height="30" as="geometry" />
        </mxCell>
        <mxCell id="oNRNMGum88ENgTCuDUTT-168" value="" style="shape=partialRectangle;connectable=0;fillColor=none;top=0;left=0;bottom=0;right=0;editable=1;overflow=hidden;whiteSpace=wrap;html=1;" parent="oNRNMGum88ENgTCuDUTT-167" vertex="1">
          <mxGeometry width="30" height="30" as="geometry">
            <mxRectangle width="30" height="30" as="alternateBounds" />
          </mxGeometry>
        </mxCell>
        <mxCell id="oNRNMGum88ENgTCuDUTT-169" value="telp" style="shape=partialRectangle;connectable=0;fillColor=none;top=0;left=0;bottom=0;right=0;align=left;spacingLeft=6;overflow=hidden;whiteSpace=wrap;html=1;" parent="oNRNMGum88ENgTCuDUTT-167" vertex="1">
          <mxGeometry x="30" width="150" height="30" as="geometry">
            <mxRectangle width="150" height="30" as="alternateBounds" />
          </mxGeometry>
        </mxCell>
        <mxCell id="oNRNMGum88ENgTCuDUTT-170" value="" style="shape=tableRow;horizontal=0;startSize=0;swimlaneHead=0;swimlaneBody=0;fillColor=none;collapsible=0;dropTarget=0;points=[[0,0.5],[1,0.5]];portConstraint=eastwest;top=0;left=0;right=0;bottom=0;" parent="oNRNMGum88ENgTCuDUTT-157" vertex="1">
          <mxGeometry y="150" width="180" height="30" as="geometry" />
        </mxCell>
        <mxCell id="oNRNMGum88ENgTCuDUTT-171" value="" style="shape=partialRectangle;connectable=0;fillColor=none;top=0;left=0;bottom=0;right=0;editable=1;overflow=hidden;whiteSpace=wrap;html=1;" parent="oNRNMGum88ENgTCuDUTT-170" vertex="1">
          <mxGeometry width="30" height="30" as="geometry">
            <mxRectangle width="30" height="30" as="alternateBounds" />
          </mxGeometry>
        </mxCell>
        <mxCell id="oNRNMGum88ENgTCuDUTT-172" value="password" style="shape=partialRectangle;connectable=0;fillColor=none;top=0;left=0;bottom=0;right=0;align=left;spacingLeft=6;overflow=hidden;whiteSpace=wrap;html=1;" parent="oNRNMGum88ENgTCuDUTT-170" vertex="1">
          <mxGeometry x="30" width="150" height="30" as="geometry">
            <mxRectangle width="150" height="30" as="alternateBounds" />
          </mxGeometry>
        </mxCell>
        <mxCell id="jF3gpsGvGAZirOrl71HD-4" value="" style="shape=tableRow;horizontal=0;startSize=0;swimlaneHead=0;swimlaneBody=0;fillColor=none;collapsible=0;dropTarget=0;points=[[0,0.5],[1,0.5]];portConstraint=eastwest;top=0;left=0;right=0;bottom=0;" parent="oNRNMGum88ENgTCuDUTT-157" vertex="1">
          <mxGeometry y="180" width="180" height="30" as="geometry" />
        </mxCell>
        <mxCell id="jF3gpsGvGAZirOrl71HD-5" value="" style="shape=partialRectangle;connectable=0;fillColor=none;top=0;left=0;bottom=0;right=0;editable=1;overflow=hidden;whiteSpace=wrap;html=1;" parent="jF3gpsGvGAZirOrl71HD-4" vertex="1">
          <mxGeometry width="30" height="30" as="geometry">
            <mxRectangle width="30" height="30" as="alternateBounds" />
          </mxGeometry>
        </mxCell>
        <mxCell id="jF3gpsGvGAZirOrl71HD-6" value="role (Admin/Kasir)" style="shape=partialRectangle;connectable=0;fillColor=none;top=0;left=0;bottom=0;right=0;align=left;spacingLeft=6;overflow=hidden;whiteSpace=wrap;html=1;" parent="jF3gpsGvGAZirOrl71HD-4" vertex="1">
          <mxGeometry x="30" width="150" height="30" as="geometry">
            <mxRectangle width="150" height="30" as="alternateBounds" />
          </mxGeometry>
        </mxCell>
        <mxCell id="oNRNMGum88ENgTCuDUTT-208" value="Transaksi" style="shape=table;startSize=30;container=1;collapsible=1;childLayout=tableLayout;fixedRows=1;rowLines=0;fontStyle=1;align=center;resizeLast=1;html=1;fillColor=#fad7ac;strokeColor=#b46504;" parent="1" vertex="1">
          <mxGeometry x="955" y="210" width="180" height="270" as="geometry">
            <mxRectangle x="850" y="300" width="100" height="30" as="alternateBounds" />
          </mxGeometry>
        </mxCell>
        <mxCell id="oNRNMGum88ENgTCuDUTT-209" value="" style="shape=tableRow;horizontal=0;startSize=0;swimlaneHead=0;swimlaneBody=0;fillColor=none;collapsible=0;dropTarget=0;points=[[0,0.5],[1,0.5]];portConstraint=eastwest;top=0;left=0;right=0;bottom=1;" parent="oNRNMGum88ENgTCuDUTT-208" vertex="1">
          <mxGeometry y="30" width="180" height="30" as="geometry" />
        </mxCell>
        <mxCell id="oNRNMGum88ENgTCuDUTT-210" value="PK" style="shape=partialRectangle;connectable=0;fillColor=none;top=0;left=0;bottom=0;right=0;fontStyle=1;overflow=hidden;whiteSpace=wrap;html=1;" parent="oNRNMGum88ENgTCuDUTT-209" vertex="1">
          <mxGeometry width="30" height="30" as="geometry">
            <mxRectangle width="30" height="30" as="alternateBounds" />
          </mxGeometry>
        </mxCell>
        <mxCell id="oNRNMGum88ENgTCuDUTT-211" value="id_transaksi" style="shape=partialRectangle;connectable=0;fillColor=none;top=0;left=0;bottom=0;right=0;align=left;spacingLeft=6;fontStyle=5;overflow=hidden;whiteSpace=wrap;html=1;" parent="oNRNMGum88ENgTCuDUTT-209" vertex="1">
          <mxGeometry x="30" width="150" height="30" as="geometry">
            <mxRectangle width="150" height="30" as="alternateBounds" />
          </mxGeometry>
        </mxCell>
        <mxCell id="oNRNMGum88ENgTCuDUTT-212" value="" style="shape=tableRow;horizontal=0;startSize=0;swimlaneHead=0;swimlaneBody=0;fillColor=none;collapsible=0;dropTarget=0;points=[[0,0.5],[1,0.5]];portConstraint=eastwest;top=0;left=0;right=0;bottom=0;" parent="oNRNMGum88ENgTCuDUTT-208" vertex="1">
          <mxGeometry y="60" width="180" height="30" as="geometry" />
        </mxCell>
        <mxCell id="oNRNMGum88ENgTCuDUTT-213" value="FK" style="shape=partialRectangle;connectable=0;fillColor=none;top=0;left=0;bottom=0;right=0;editable=1;overflow=hidden;whiteSpace=wrap;html=1;" parent="oNRNMGum88ENgTCuDUTT-212" vertex="1">
          <mxGeometry width="30" height="30" as="geometry">
            <mxRectangle width="30" height="30" as="alternateBounds" />
          </mxGeometry>
        </mxCell>
        <mxCell id="oNRNMGum88ENgTCuDUTT-214" value="id_user" style="shape=partialRectangle;connectable=0;fillColor=none;top=0;left=0;bottom=0;right=0;align=left;spacingLeft=6;overflow=hidden;whiteSpace=wrap;html=1;" parent="oNRNMGum88ENgTCuDUTT-212" vertex="1">
          <mxGeometry x="30" width="150" height="30" as="geometry">
            <mxRectangle width="150" height="30" as="alternateBounds" />
          </mxGeometry>
        </mxCell>
        <mxCell id="K_28fzQqX-i3X8EkiXgM-18" value="" style="shape=tableRow;horizontal=0;startSize=0;swimlaneHead=0;swimlaneBody=0;fillColor=none;collapsible=0;dropTarget=0;points=[[0,0.5],[1,0.5]];portConstraint=eastwest;top=0;left=0;right=0;bottom=0;" vertex="1" parent="oNRNMGum88ENgTCuDUTT-208">
          <mxGeometry y="90" width="180" height="30" as="geometry" />
        </mxCell>
        <mxCell id="K_28fzQqX-i3X8EkiXgM-19" value="" style="shape=partialRectangle;connectable=0;fillColor=none;top=0;left=0;bottom=0;right=0;editable=1;overflow=hidden;whiteSpace=wrap;html=1;" vertex="1" parent="K_28fzQqX-i3X8EkiXgM-18">
          <mxGeometry width="30" height="30" as="geometry">
            <mxRectangle width="30" height="30" as="alternateBounds" />
          </mxGeometry>
        </mxCell>
        <mxCell id="K_28fzQqX-i3X8EkiXgM-20" value="no_nota" style="shape=partialRectangle;connectable=0;fillColor=none;top=0;left=0;bottom=0;right=0;align=left;spacingLeft=6;overflow=hidden;whiteSpace=wrap;html=1;" vertex="1" parent="K_28fzQqX-i3X8EkiXgM-18">
          <mxGeometry x="30" width="150" height="30" as="geometry">
            <mxRectangle width="150" height="30" as="alternateBounds" />
          </mxGeometry>
        </mxCell>
        <mxCell id="oNRNMGum88ENgTCuDUTT-236" value="" style="shape=tableRow;horizontal=0;startSize=0;swimlaneHead=0;swimlaneBody=0;fillColor=none;collapsible=0;dropTarget=0;points=[[0,0.5],[1,0.5]];portConstraint=eastwest;top=0;left=0;right=0;bottom=0;" parent="oNRNMGum88ENgTCuDUTT-208" vertex="1">
          <mxGeometry y="120" width="180" height="30" as="geometry" />
        </mxCell>
        <mxCell id="oNRNMGum88ENgTCuDUTT-237" value="" style="shape=partialRectangle;connectable=0;fillColor=none;top=0;left=0;bottom=0;right=0;editable=1;overflow=hidden;whiteSpace=wrap;html=1;" parent="oNRNMGum88ENgTCuDUTT-236" vertex="1">
          <mxGeometry width="30" height="30" as="geometry">
            <mxRectangle width="30" height="30" as="alternateBounds" />
          </mxGeometry>
        </mxCell>
        <mxCell id="oNRNMGum88ENgTCuDUTT-238" value="nama_pembeli" style="shape=partialRectangle;connectable=0;fillColor=none;top=0;left=0;bottom=0;right=0;align=left;spacingLeft=6;overflow=hidden;whiteSpace=wrap;html=1;" parent="oNRNMGum88ENgTCuDUTT-236" vertex="1">
          <mxGeometry x="30" width="150" height="30" as="geometry">
            <mxRectangle width="150" height="30" as="alternateBounds" />
          </mxGeometry>
        </mxCell>
        <mxCell id="oNRNMGum88ENgTCuDUTT-215" value="" style="shape=tableRow;horizontal=0;startSize=0;swimlaneHead=0;swimlaneBody=0;fillColor=none;collapsible=0;dropTarget=0;points=[[0,0.5],[1,0.5]];portConstraint=eastwest;top=0;left=0;right=0;bottom=0;" parent="oNRNMGum88ENgTCuDUTT-208" vertex="1">
          <mxGeometry y="150" width="180" height="30" as="geometry" />
        </mxCell>
        <mxCell id="oNRNMGum88ENgTCuDUTT-216" value="" style="shape=partialRectangle;connectable=0;fillColor=none;top=0;left=0;bottom=0;right=0;editable=1;overflow=hidden;whiteSpace=wrap;html=1;" parent="oNRNMGum88ENgTCuDUTT-215" vertex="1">
          <mxGeometry width="30" height="30" as="geometry">
            <mxRectangle width="30" height="30" as="alternateBounds" />
          </mxGeometry>
        </mxCell>
        <mxCell id="oNRNMGum88ENgTCuDUTT-217" value="metode_pembayaran" style="shape=partialRectangle;connectable=0;fillColor=none;top=0;left=0;bottom=0;right=0;align=left;spacingLeft=6;overflow=hidden;whiteSpace=wrap;html=1;" parent="oNRNMGum88ENgTCuDUTT-215" vertex="1">
          <mxGeometry x="30" width="150" height="30" as="geometry">
            <mxRectangle width="150" height="30" as="alternateBounds" />
          </mxGeometry>
        </mxCell>
        <mxCell id="oNRNMGum88ENgTCuDUTT-230" value="" style="shape=tableRow;horizontal=0;startSize=0;swimlaneHead=0;swimlaneBody=0;fillColor=none;collapsible=0;dropTarget=0;points=[[0,0.5],[1,0.5]];portConstraint=eastwest;top=0;left=0;right=0;bottom=0;" parent="oNRNMGum88ENgTCuDUTT-208" vertex="1">
          <mxGeometry y="180" width="180" height="30" as="geometry" />
        </mxCell>
        <mxCell id="oNRNMGum88ENgTCuDUTT-231" value="" style="shape=partialRectangle;connectable=0;fillColor=none;top=0;left=0;bottom=0;right=0;editable=1;overflow=hidden;whiteSpace=wrap;html=1;" parent="oNRNMGum88ENgTCuDUTT-230" vertex="1">
          <mxGeometry width="30" height="30" as="geometry">
            <mxRectangle width="30" height="30" as="alternateBounds" />
          </mxGeometry>
        </mxCell>
        <mxCell id="oNRNMGum88ENgTCuDUTT-232" value="harga_pengiriman" style="shape=partialRectangle;connectable=0;fillColor=none;top=0;left=0;bottom=0;right=0;align=left;spacingLeft=6;overflow=hidden;whiteSpace=wrap;html=1;" parent="oNRNMGum88ENgTCuDUTT-230" vertex="1">
          <mxGeometry x="30" width="150" height="30" as="geometry">
            <mxRectangle width="150" height="30" as="alternateBounds" />
          </mxGeometry>
        </mxCell>
        <mxCell id="oNRNMGum88ENgTCuDUTT-233" value="" style="shape=tableRow;horizontal=0;startSize=0;swimlaneHead=0;swimlaneBody=0;fillColor=none;collapsible=0;dropTarget=0;points=[[0,0.5],[1,0.5]];portConstraint=eastwest;top=0;left=0;right=0;bottom=0;" parent="oNRNMGum88ENgTCuDUTT-208" vertex="1">
          <mxGeometry y="210" width="180" height="30" as="geometry" />
        </mxCell>
        <mxCell id="oNRNMGum88ENgTCuDUTT-234" value="" style="shape=partialRectangle;connectable=0;fillColor=none;top=0;left=0;bottom=0;right=0;editable=1;overflow=hidden;whiteSpace=wrap;html=1;" parent="oNRNMGum88ENgTCuDUTT-233" vertex="1">
          <mxGeometry width="30" height="30" as="geometry">
            <mxRectangle width="30" height="30" as="alternateBounds" />
          </mxGeometry>
        </mxCell>
        <mxCell id="oNRNMGum88ENgTCuDUTT-235" value="agen_pengiriman" style="shape=partialRectangle;connectable=0;fillColor=none;top=0;left=0;bottom=0;right=0;align=left;spacingLeft=6;overflow=hidden;whiteSpace=wrap;html=1;" parent="oNRNMGum88ENgTCuDUTT-233" vertex="1">
          <mxGeometry x="30" width="150" height="30" as="geometry">
            <mxRectangle width="150" height="30" as="alternateBounds" />
          </mxGeometry>
        </mxCell>
        <mxCell id="g8NCzxM5D4jptWZxrAvM-1" value="" style="shape=tableRow;horizontal=0;startSize=0;swimlaneHead=0;swimlaneBody=0;fillColor=none;collapsible=0;dropTarget=0;points=[[0,0.5],[1,0.5]];portConstraint=eastwest;top=0;left=0;right=0;bottom=0;" parent="oNRNMGum88ENgTCuDUTT-208" vertex="1">
          <mxGeometry y="240" width="180" height="30" as="geometry" />
        </mxCell>
        <mxCell id="g8NCzxM5D4jptWZxrAvM-2" value="" style="shape=partialRectangle;connectable=0;fillColor=none;top=0;left=0;bottom=0;right=0;editable=1;overflow=hidden;whiteSpace=wrap;html=1;" parent="g8NCzxM5D4jptWZxrAvM-1" vertex="1">
          <mxGeometry width="30" height="30" as="geometry">
            <mxRectangle width="30" height="30" as="alternateBounds" />
          </mxGeometry>
        </mxCell>
        <mxCell id="g8NCzxM5D4jptWZxrAvM-3" value="tanggal_transaksi" style="shape=partialRectangle;connectable=0;fillColor=none;top=0;left=0;bottom=0;right=0;align=left;spacingLeft=6;overflow=hidden;whiteSpace=wrap;html=1;" parent="g8NCzxM5D4jptWZxrAvM-1" vertex="1">
          <mxGeometry x="30" width="150" height="30" as="geometry">
            <mxRectangle width="150" height="30" as="alternateBounds" />
          </mxGeometry>
        </mxCell>
        <mxCell id="oNRNMGum88ENgTCuDUTT-256" value="Detail Transaksi" style="shape=table;startSize=30;container=1;collapsible=1;childLayout=tableLayout;fixedRows=1;rowLines=0;fontStyle=1;align=center;resizeLast=1;html=1;fillColor=#fad7ac;strokeColor=#b46504;" parent="1" vertex="1">
          <mxGeometry x="725" y="620" width="180" height="270" as="geometry">
            <mxRectangle x="710" y="520" width="130" height="30" as="alternateBounds" />
          </mxGeometry>
        </mxCell>
        <mxCell id="K_28fzQqX-i3X8EkiXgM-21" value="" style="shape=tableRow;horizontal=0;startSize=0;swimlaneHead=0;swimlaneBody=0;fillColor=none;collapsible=0;dropTarget=0;points=[[0,0.5],[1,0.5]];portConstraint=eastwest;top=0;left=0;right=0;bottom=1;" vertex="1" parent="oNRNMGum88ENgTCuDUTT-256">
          <mxGeometry y="30" width="180" height="30" as="geometry" />
        </mxCell>
        <mxCell id="K_28fzQqX-i3X8EkiXgM-22" value="PK" style="shape=partialRectangle;connectable=0;fillColor=none;top=0;left=0;bottom=0;right=0;fontStyle=1;overflow=hidden;whiteSpace=wrap;html=1;" vertex="1" parent="K_28fzQqX-i3X8EkiXgM-21">
          <mxGeometry width="30" height="30" as="geometry">
            <mxRectangle width="30" height="30" as="alternateBounds" />
          </mxGeometry>
        </mxCell>
        <mxCell id="K_28fzQqX-i3X8EkiXgM-23" value="id_detail_transaksi" style="shape=partialRectangle;connectable=0;fillColor=none;top=0;left=0;bottom=0;right=0;align=left;spacingLeft=6;fontStyle=5;overflow=hidden;whiteSpace=wrap;html=1;" vertex="1" parent="K_28fzQqX-i3X8EkiXgM-21">
          <mxGeometry x="30" width="150" height="30" as="geometry">
            <mxRectangle width="150" height="30" as="alternateBounds" />
          </mxGeometry>
        </mxCell>
        <mxCell id="oNRNMGum88ENgTCuDUTT-260" value="" style="shape=tableRow;horizontal=0;startSize=0;swimlaneHead=0;swimlaneBody=0;fillColor=none;collapsible=0;dropTarget=0;points=[[0,0.5],[1,0.5]];portConstraint=eastwest;top=0;left=0;right=0;bottom=0;" parent="oNRNMGum88ENgTCuDUTT-256" vertex="1">
          <mxGeometry y="60" width="180" height="30" as="geometry" />
        </mxCell>
        <mxCell id="oNRNMGum88ENgTCuDUTT-261" value="FK" style="shape=partialRectangle;connectable=0;fillColor=none;top=0;left=0;bottom=0;right=0;editable=1;overflow=hidden;whiteSpace=wrap;html=1;" parent="oNRNMGum88ENgTCuDUTT-260" vertex="1">
          <mxGeometry width="30" height="30" as="geometry">
            <mxRectangle width="30" height="30" as="alternateBounds" />
          </mxGeometry>
        </mxCell>
        <mxCell id="oNRNMGum88ENgTCuDUTT-262" value="id_transaksi" style="shape=partialRectangle;connectable=0;fillColor=none;top=0;left=0;bottom=0;right=0;align=left;spacingLeft=6;overflow=hidden;whiteSpace=wrap;html=1;" parent="oNRNMGum88ENgTCuDUTT-260" vertex="1">
          <mxGeometry x="30" width="150" height="30" as="geometry">
            <mxRectangle width="150" height="30" as="alternateBounds" />
          </mxGeometry>
        </mxCell>
        <mxCell id="oNRNMGum88ENgTCuDUTT-263" value="" style="shape=tableRow;horizontal=0;startSize=0;swimlaneHead=0;swimlaneBody=0;fillColor=none;collapsible=0;dropTarget=0;points=[[0,0.5],[1,0.5]];portConstraint=eastwest;top=0;left=0;right=0;bottom=0;" parent="oNRNMGum88ENgTCuDUTT-256" vertex="1">
          <mxGeometry y="90" width="180" height="30" as="geometry" />
        </mxCell>
        <mxCell id="oNRNMGum88ENgTCuDUTT-264" value="FK" style="shape=partialRectangle;connectable=0;fillColor=none;top=0;left=0;bottom=0;right=0;editable=1;overflow=hidden;whiteSpace=wrap;html=1;" parent="oNRNMGum88ENgTCuDUTT-263" vertex="1">
          <mxGeometry width="30" height="30" as="geometry">
            <mxRectangle width="30" height="30" as="alternateBounds" />
          </mxGeometry>
        </mxCell>
        <mxCell id="oNRNMGum88ENgTCuDUTT-265" value="id_barang" style="shape=partialRectangle;connectable=0;fillColor=none;top=0;left=0;bottom=0;right=0;align=left;spacingLeft=6;overflow=hidden;whiteSpace=wrap;html=1;" parent="oNRNMGum88ENgTCuDUTT-263" vertex="1">
          <mxGeometry x="30" width="150" height="30" as="geometry">
            <mxRectangle width="150" height="30" as="alternateBounds" />
          </mxGeometry>
        </mxCell>
        <mxCell id="oNRNMGum88ENgTCuDUTT-266" value="" style="shape=tableRow;horizontal=0;startSize=0;swimlaneHead=0;swimlaneBody=0;fillColor=none;collapsible=0;dropTarget=0;points=[[0,0.5],[1,0.5]];portConstraint=eastwest;top=0;left=0;right=0;bottom=0;" parent="oNRNMGum88ENgTCuDUTT-256" vertex="1">
          <mxGeometry y="120" width="180" height="30" as="geometry" />
        </mxCell>
        <mxCell id="oNRNMGum88ENgTCuDUTT-267" value="" style="shape=partialRectangle;connectable=0;fillColor=none;top=0;left=0;bottom=0;right=0;editable=1;overflow=hidden;whiteSpace=wrap;html=1;" parent="oNRNMGum88ENgTCuDUTT-266" vertex="1">
          <mxGeometry width="30" height="30" as="geometry">
            <mxRectangle width="30" height="30" as="alternateBounds" />
          </mxGeometry>
        </mxCell>
        <mxCell id="oNRNMGum88ENgTCuDUTT-268" value="quantity" style="shape=partialRectangle;connectable=0;fillColor=none;top=0;left=0;bottom=0;right=0;align=left;spacingLeft=6;overflow=hidden;whiteSpace=wrap;html=1;" parent="oNRNMGum88ENgTCuDUTT-266" vertex="1">
          <mxGeometry x="30" width="150" height="30" as="geometry">
            <mxRectangle width="150" height="30" as="alternateBounds" />
          </mxGeometry>
        </mxCell>
        <mxCell id="K_28fzQqX-i3X8EkiXgM-24" value="" style="shape=tableRow;horizontal=0;startSize=0;swimlaneHead=0;swimlaneBody=0;fillColor=none;collapsible=0;dropTarget=0;points=[[0,0.5],[1,0.5]];portConstraint=eastwest;top=0;left=0;right=0;bottom=0;" vertex="1" parent="oNRNMGum88ENgTCuDUTT-256">
          <mxGeometry y="150" width="180" height="30" as="geometry" />
        </mxCell>
        <mxCell id="K_28fzQqX-i3X8EkiXgM-25" value="" style="shape=partialRectangle;connectable=0;fillColor=none;top=0;left=0;bottom=0;right=0;editable=1;overflow=hidden;whiteSpace=wrap;html=1;" vertex="1" parent="K_28fzQqX-i3X8EkiXgM-24">
          <mxGeometry width="30" height="30" as="geometry">
            <mxRectangle width="30" height="30" as="alternateBounds" />
          </mxGeometry>
        </mxCell>
        <mxCell id="K_28fzQqX-i3X8EkiXgM-26" value="satuan" style="shape=partialRectangle;connectable=0;fillColor=none;top=0;left=0;bottom=0;right=0;align=left;spacingLeft=6;overflow=hidden;whiteSpace=wrap;html=1;" vertex="1" parent="K_28fzQqX-i3X8EkiXgM-24">
          <mxGeometry x="30" width="150" height="30" as="geometry">
            <mxRectangle width="150" height="30" as="alternateBounds" />
          </mxGeometry>
        </mxCell>
        <mxCell id="oNRNMGum88ENgTCuDUTT-279" value="" style="shape=tableRow;horizontal=0;startSize=0;swimlaneHead=0;swimlaneBody=0;fillColor=none;collapsible=0;dropTarget=0;points=[[0,0.5],[1,0.5]];portConstraint=eastwest;top=0;left=0;right=0;bottom=0;" parent="oNRNMGum88ENgTCuDUTT-256" vertex="1">
          <mxGeometry y="180" width="180" height="30" as="geometry" />
        </mxCell>
        <mxCell id="oNRNMGum88ENgTCuDUTT-280" value="" style="shape=partialRectangle;connectable=0;fillColor=none;top=0;left=0;bottom=0;right=0;editable=1;overflow=hidden;whiteSpace=wrap;html=1;" parent="oNRNMGum88ENgTCuDUTT-279" vertex="1">
          <mxGeometry width="30" height="30" as="geometry">
            <mxRectangle width="30" height="30" as="alternateBounds" />
          </mxGeometry>
        </mxCell>
        <mxCell id="oNRNMGum88ENgTCuDUTT-281" value="harga_jual" style="shape=partialRectangle;connectable=0;fillColor=none;top=0;left=0;bottom=0;right=0;align=left;spacingLeft=6;overflow=hidden;whiteSpace=wrap;html=1;" parent="oNRNMGum88ENgTCuDUTT-279" vertex="1">
          <mxGeometry x="30" width="150" height="30" as="geometry">
            <mxRectangle width="150" height="30" as="alternateBounds" />
          </mxGeometry>
        </mxCell>
        <mxCell id="oNRNMGum88ENgTCuDUTT-282" value="" style="shape=tableRow;horizontal=0;startSize=0;swimlaneHead=0;swimlaneBody=0;fillColor=none;collapsible=0;dropTarget=0;points=[[0,0.5],[1,0.5]];portConstraint=eastwest;top=0;left=0;right=0;bottom=0;" parent="oNRNMGum88ENgTCuDUTT-256" vertex="1">
          <mxGeometry y="210" width="180" height="30" as="geometry" />
        </mxCell>
        <mxCell id="oNRNMGum88ENgTCuDUTT-283" value="" style="shape=partialRectangle;connectable=0;fillColor=none;top=0;left=0;bottom=0;right=0;editable=1;overflow=hidden;whiteSpace=wrap;html=1;" parent="oNRNMGum88ENgTCuDUTT-282" vertex="1">
          <mxGeometry width="30" height="30" as="geometry">
            <mxRectangle width="30" height="30" as="alternateBounds" />
          </mxGeometry>
        </mxCell>
        <mxCell id="oNRNMGum88ENgTCuDUTT-284" value="deskripsi" style="shape=partialRectangle;connectable=0;fillColor=none;top=0;left=0;bottom=0;right=0;align=left;spacingLeft=6;overflow=hidden;whiteSpace=wrap;html=1;" parent="oNRNMGum88ENgTCuDUTT-282" vertex="1">
          <mxGeometry x="30" width="150" height="30" as="geometry">
            <mxRectangle width="150" height="30" as="alternateBounds" />
          </mxGeometry>
        </mxCell>
        <mxCell id="srQnQxKla5XOw12ipxYZ-1" value="" style="shape=tableRow;horizontal=0;startSize=0;swimlaneHead=0;swimlaneBody=0;fillColor=none;collapsible=0;dropTarget=0;points=[[0,0.5],[1,0.5]];portConstraint=eastwest;top=0;left=0;right=0;bottom=0;" vertex="1" parent="oNRNMGum88ENgTCuDUTT-256">
          <mxGeometry y="240" width="180" height="30" as="geometry" />
        </mxCell>
        <mxCell id="srQnQxKla5XOw12ipxYZ-2" value="" style="shape=partialRectangle;connectable=0;fillColor=none;top=0;left=0;bottom=0;right=0;editable=1;overflow=hidden;whiteSpace=wrap;html=1;" vertex="1" parent="srQnQxKla5XOw12ipxYZ-1">
          <mxGeometry width="30" height="30" as="geometry">
            <mxRectangle width="30" height="30" as="alternateBounds" />
          </mxGeometry>
        </mxCell>
        <mxCell id="srQnQxKla5XOw12ipxYZ-3" value="total" style="shape=partialRectangle;connectable=0;fillColor=none;top=0;left=0;bottom=0;right=0;align=left;spacingLeft=6;overflow=hidden;whiteSpace=wrap;html=1;" vertex="1" parent="srQnQxKla5XOw12ipxYZ-1">
          <mxGeometry x="30" width="150" height="30" as="geometry">
            <mxRectangle width="150" height="30" as="alternateBounds" />
          </mxGeometry>
        </mxCell>
        <mxCell id="oNRNMGum88ENgTCuDUTT-286" value="" style="fontSize=12;html=1;endArrow=ERoneToMany;startArrow=ERmandOne;rounded=0;exitX=0.5;exitY=1;exitDx=0;exitDy=0;edgeStyle=orthogonalEdgeStyle;entryX=1;entryY=0.5;entryDx=0;entryDy=0;" parent="1" source="oNRNMGum88ENgTCuDUTT-208" target="oNRNMGum88ENgTCuDUTT-260" edge="1">
          <mxGeometry width="100" height="100" relative="1" as="geometry">
            <mxPoint x="985" y="470" as="sourcePoint" />
            <mxPoint x="1155" y="340" as="targetPoint" />
            <Array as="points">
              <mxPoint x="1045" y="695" />
            </Array>
          </mxGeometry>
        </mxCell>
        <mxCell id="oNRNMGum88ENgTCuDUTT-290" value="" style="edgeStyle=orthogonalEdgeStyle;fontSize=12;html=1;endArrow=ERzeroToMany;startArrow=ERmandOne;rounded=0;entryX=0;entryY=0.5;entryDx=0;entryDy=0;exitX=1;exitY=0.5;exitDx=0;exitDy=0;" parent="1" source="oNRNMGum88ENgTCuDUTT-158" target="oNRNMGum88ENgTCuDUTT-212" edge="1">
          <mxGeometry width="100" height="100" relative="1" as="geometry">
            <mxPoint x="865" y="530" as="sourcePoint" />
            <mxPoint x="1025" y="330" as="targetPoint" />
          </mxGeometry>
        </mxCell>
        <mxCell id="oNRNMGum88ENgTCuDUTT-304" value="" style="edgeStyle=orthogonalEdgeStyle;fontSize=12;html=1;endArrow=ERzeroToMany;startArrow=ERmandOne;rounded=0;exitX=1;exitY=0.5;exitDx=0;exitDy=0;entryX=0;entryY=0.5;entryDx=0;entryDy=0;" parent="1" source="oNRNMGum88ENgTCuDUTT-95" target="oNRNMGum88ENgTCuDUTT-263" edge="1">
          <mxGeometry width="100" height="100" relative="1" as="geometry">
            <mxPoint x="835" y="570" as="sourcePoint" />
            <mxPoint x="1035" y="710" as="targetPoint" />
          </mxGeometry>
        </mxCell>
        <mxCell id="oNRNMGum88ENgTCuDUTT-305" value="Log" style="shape=table;startSize=30;container=1;collapsible=1;childLayout=tableLayout;fixedRows=1;rowLines=0;fontStyle=1;align=center;resizeLast=1;html=1;fillColor=#fad7ac;strokeColor=#b46504;" parent="1" vertex="1">
          <mxGeometry x="425" y="120" width="180" height="120" as="geometry">
            <mxRectangle x="100" y="110" width="90" height="30" as="alternateBounds" />
          </mxGeometry>
        </mxCell>
        <mxCell id="K_28fzQqX-i3X8EkiXgM-12" value="" style="shape=tableRow;horizontal=0;startSize=0;swimlaneHead=0;swimlaneBody=0;fillColor=none;collapsible=0;dropTarget=0;points=[[0,0.5],[1,0.5]];portConstraint=eastwest;top=0;left=0;right=0;bottom=1;" vertex="1" parent="oNRNMGum88ENgTCuDUTT-305">
          <mxGeometry y="30" width="180" height="30" as="geometry" />
        </mxCell>
        <mxCell id="K_28fzQqX-i3X8EkiXgM-13" value="PK" style="shape=partialRectangle;connectable=0;fillColor=none;top=0;left=0;bottom=0;right=0;fontStyle=1;overflow=hidden;whiteSpace=wrap;html=1;" vertex="1" parent="K_28fzQqX-i3X8EkiXgM-12">
          <mxGeometry width="30" height="30" as="geometry">
            <mxRectangle width="30" height="30" as="alternateBounds" />
          </mxGeometry>
        </mxCell>
        <mxCell id="K_28fzQqX-i3X8EkiXgM-14" value="id_log" style="shape=partialRectangle;connectable=0;fillColor=none;top=0;left=0;bottom=0;right=0;align=left;spacingLeft=6;fontStyle=5;overflow=hidden;whiteSpace=wrap;html=1;" vertex="1" parent="K_28fzQqX-i3X8EkiXgM-12">
          <mxGeometry x="30" width="150" height="30" as="geometry">
            <mxRectangle width="150" height="30" as="alternateBounds" />
          </mxGeometry>
        </mxCell>
        <mxCell id="oNRNMGum88ENgTCuDUTT-309" value="" style="shape=tableRow;horizontal=0;startSize=0;swimlaneHead=0;swimlaneBody=0;fillColor=none;collapsible=0;dropTarget=0;points=[[0,0.5],[1,0.5]];portConstraint=eastwest;top=0;left=0;right=0;bottom=0;" parent="oNRNMGum88ENgTCuDUTT-305" vertex="1">
          <mxGeometry y="60" width="180" height="30" as="geometry" />
        </mxCell>
        <mxCell id="oNRNMGum88ENgTCuDUTT-310" value="FK" style="shape=partialRectangle;connectable=0;fillColor=none;top=0;left=0;bottom=0;right=0;editable=1;overflow=hidden;whiteSpace=wrap;html=1;" parent="oNRNMGum88ENgTCuDUTT-309" vertex="1">
          <mxGeometry width="30" height="30" as="geometry">
            <mxRectangle width="30" height="30" as="alternateBounds" />
          </mxGeometry>
        </mxCell>
        <mxCell id="oNRNMGum88ENgTCuDUTT-311" value="id_user" style="shape=partialRectangle;connectable=0;fillColor=none;top=0;left=0;bottom=0;right=0;align=left;spacingLeft=6;overflow=hidden;whiteSpace=wrap;html=1;" parent="oNRNMGum88ENgTCuDUTT-309" vertex="1">
          <mxGeometry x="30" width="150" height="30" as="geometry">
            <mxRectangle width="150" height="30" as="alternateBounds" />
          </mxGeometry>
        </mxCell>
        <mxCell id="oNRNMGum88ENgTCuDUTT-312" value="" style="shape=tableRow;horizontal=0;startSize=0;swimlaneHead=0;swimlaneBody=0;fillColor=none;collapsible=0;dropTarget=0;points=[[0,0.5],[1,0.5]];portConstraint=eastwest;top=0;left=0;right=0;bottom=0;" parent="oNRNMGum88ENgTCuDUTT-305" vertex="1">
          <mxGeometry y="90" width="180" height="30" as="geometry" />
        </mxCell>
        <mxCell id="oNRNMGum88ENgTCuDUTT-313" value="" style="shape=partialRectangle;connectable=0;fillColor=none;top=0;left=0;bottom=0;right=0;editable=1;overflow=hidden;whiteSpace=wrap;html=1;" parent="oNRNMGum88ENgTCuDUTT-312" vertex="1">
          <mxGeometry width="30" height="30" as="geometry">
            <mxRectangle width="30" height="30" as="alternateBounds" />
          </mxGeometry>
        </mxCell>
        <mxCell id="oNRNMGum88ENgTCuDUTT-314" value="task" style="shape=partialRectangle;connectable=0;fillColor=none;top=0;left=0;bottom=0;right=0;align=left;spacingLeft=6;overflow=hidden;whiteSpace=wrap;html=1;" parent="oNRNMGum88ENgTCuDUTT-312" vertex="1">
          <mxGeometry x="30" width="150" height="30" as="geometry">
            <mxRectangle width="150" height="30" as="alternateBounds" />
          </mxGeometry>
        </mxCell>
        <mxCell id="oNRNMGum88ENgTCuDUTT-319" value="" style="edgeStyle=orthogonalEdgeStyle;fontSize=12;html=1;endArrow=ERzeroToMany;startArrow=ERmandOne;rounded=0;entryX=0;entryY=0.5;entryDx=0;entryDy=0;exitX=1;exitY=0.5;exitDx=0;exitDy=0;" parent="1" source="oNRNMGum88ENgTCuDUTT-69" target="oNRNMGum88ENgTCuDUTT-221" edge="1">
          <mxGeometry width="100" height="100" relative="1" as="geometry">
            <mxPoint x="555" y="410" as="sourcePoint" />
            <mxPoint x="635" y="575" as="targetPoint" />
          </mxGeometry>
        </mxCell>
        <mxCell id="386rh_wT6ISxh9mVD8ys-1" value="Detail Supplier" style="shape=table;startSize=30;container=1;collapsible=1;childLayout=tableLayout;fixedRows=1;rowLines=0;fontStyle=1;align=center;resizeLast=1;html=1;fillColor=#fad7ac;strokeColor=#b46504;" parent="1" vertex="1">
          <mxGeometry x="445" y="350" width="180" height="210" as="geometry">
            <mxRectangle x="730" y="480" width="130" height="30" as="alternateBounds" />
          </mxGeometry>
        </mxCell>
        <mxCell id="K_28fzQqX-i3X8EkiXgM-36" value="" style="shape=tableRow;horizontal=0;startSize=0;swimlaneHead=0;swimlaneBody=0;fillColor=none;collapsible=0;dropTarget=0;points=[[0,0.5],[1,0.5]];portConstraint=eastwest;top=0;left=0;right=0;bottom=1;" vertex="1" parent="386rh_wT6ISxh9mVD8ys-1">
          <mxGeometry y="30" width="180" height="30" as="geometry" />
        </mxCell>
        <mxCell id="K_28fzQqX-i3X8EkiXgM-37" value="PK" style="shape=partialRectangle;connectable=0;fillColor=none;top=0;left=0;bottom=0;right=0;fontStyle=1;overflow=hidden;whiteSpace=wrap;html=1;" vertex="1" parent="K_28fzQqX-i3X8EkiXgM-36">
          <mxGeometry width="30" height="30" as="geometry">
            <mxRectangle width="30" height="30" as="alternateBounds" />
          </mxGeometry>
        </mxCell>
        <mxCell id="K_28fzQqX-i3X8EkiXgM-38" value="id_detail_supplier" style="shape=partialRectangle;connectable=0;fillColor=none;top=0;left=0;bottom=0;right=0;align=left;spacingLeft=6;fontStyle=5;overflow=hidden;whiteSpace=wrap;html=1;" vertex="1" parent="K_28fzQqX-i3X8EkiXgM-36">
          <mxGeometry x="30" width="150" height="30" as="geometry">
            <mxRectangle width="150" height="30" as="alternateBounds" />
          </mxGeometry>
        </mxCell>
        <mxCell id="386rh_wT6ISxh9mVD8ys-5" value="" style="shape=tableRow;horizontal=0;startSize=0;swimlaneHead=0;swimlaneBody=0;fillColor=none;collapsible=0;dropTarget=0;points=[[0,0.5],[1,0.5]];portConstraint=eastwest;top=0;left=0;right=0;bottom=0;" parent="386rh_wT6ISxh9mVD8ys-1" vertex="1">
          <mxGeometry y="60" width="180" height="30" as="geometry" />
        </mxCell>
        <mxCell id="386rh_wT6ISxh9mVD8ys-6" value="FK" style="shape=partialRectangle;connectable=0;fillColor=none;top=0;left=0;bottom=0;right=0;editable=1;overflow=hidden;whiteSpace=wrap;html=1;" parent="386rh_wT6ISxh9mVD8ys-5" vertex="1">
          <mxGeometry width="30" height="30" as="geometry">
            <mxRectangle width="30" height="30" as="alternateBounds" />
          </mxGeometry>
        </mxCell>
        <mxCell id="386rh_wT6ISxh9mVD8ys-7" value="id_supplier" style="shape=partialRectangle;connectable=0;fillColor=none;top=0;left=0;bottom=0;right=0;align=left;spacingLeft=6;overflow=hidden;whiteSpace=wrap;html=1;" parent="386rh_wT6ISxh9mVD8ys-5" vertex="1">
          <mxGeometry x="30" width="150" height="30" as="geometry">
            <mxRectangle width="150" height="30" as="alternateBounds" />
          </mxGeometry>
        </mxCell>
        <mxCell id="386rh_wT6ISxh9mVD8ys-30" value="" style="shape=tableRow;horizontal=0;startSize=0;swimlaneHead=0;swimlaneBody=0;fillColor=none;collapsible=0;dropTarget=0;points=[[0,0.5],[1,0.5]];portConstraint=eastwest;top=0;left=0;right=0;bottom=0;" parent="386rh_wT6ISxh9mVD8ys-1" vertex="1">
          <mxGeometry y="90" width="180" height="30" as="geometry" />
        </mxCell>
        <mxCell id="386rh_wT6ISxh9mVD8ys-31" value="FK" style="shape=partialRectangle;connectable=0;fillColor=none;top=0;left=0;bottom=0;right=0;editable=1;overflow=hidden;whiteSpace=wrap;html=1;" parent="386rh_wT6ISxh9mVD8ys-30" vertex="1">
          <mxGeometry width="30" height="30" as="geometry">
            <mxRectangle width="30" height="30" as="alternateBounds" />
          </mxGeometry>
        </mxCell>
        <mxCell id="386rh_wT6ISxh9mVD8ys-32" value="id_barang" style="shape=partialRectangle;connectable=0;fillColor=none;top=0;left=0;bottom=0;right=0;align=left;spacingLeft=6;overflow=hidden;whiteSpace=wrap;html=1;" parent="386rh_wT6ISxh9mVD8ys-30" vertex="1">
          <mxGeometry x="30" width="150" height="30" as="geometry">
            <mxRectangle width="150" height="30" as="alternateBounds" />
          </mxGeometry>
        </mxCell>
        <mxCell id="jF3gpsGvGAZirOrl71HD-1" value="" style="shape=tableRow;horizontal=0;startSize=0;swimlaneHead=0;swimlaneBody=0;fillColor=none;collapsible=0;dropTarget=0;points=[[0,0.5],[1,0.5]];portConstraint=eastwest;top=0;left=0;right=0;bottom=0;" parent="386rh_wT6ISxh9mVD8ys-1" vertex="1">
          <mxGeometry y="120" width="180" height="30" as="geometry" />
        </mxCell>
        <mxCell id="jF3gpsGvGAZirOrl71HD-2" value="" style="shape=partialRectangle;connectable=0;fillColor=none;top=0;left=0;bottom=0;right=0;editable=1;overflow=hidden;whiteSpace=wrap;html=1;" parent="jF3gpsGvGAZirOrl71HD-1" vertex="1">
          <mxGeometry width="30" height="30" as="geometry">
            <mxRectangle width="30" height="30" as="alternateBounds" />
          </mxGeometry>
        </mxCell>
        <mxCell id="jF3gpsGvGAZirOrl71HD-3" value="harga_beli" style="shape=partialRectangle;connectable=0;fillColor=none;top=0;left=0;bottom=0;right=0;align=left;spacingLeft=6;overflow=hidden;whiteSpace=wrap;html=1;" parent="jF3gpsGvGAZirOrl71HD-1" vertex="1">
          <mxGeometry x="30" width="150" height="30" as="geometry">
            <mxRectangle width="150" height="30" as="alternateBounds" />
          </mxGeometry>
        </mxCell>
        <mxCell id="K_28fzQqX-i3X8EkiXgM-27" value="" style="shape=tableRow;horizontal=0;startSize=0;swimlaneHead=0;swimlaneBody=0;fillColor=none;collapsible=0;dropTarget=0;points=[[0,0.5],[1,0.5]];portConstraint=eastwest;top=0;left=0;right=0;bottom=0;" vertex="1" parent="386rh_wT6ISxh9mVD8ys-1">
          <mxGeometry y="150" width="180" height="30" as="geometry" />
        </mxCell>
        <mxCell id="K_28fzQqX-i3X8EkiXgM-28" value="" style="shape=partialRectangle;connectable=0;fillColor=none;top=0;left=0;bottom=0;right=0;editable=1;overflow=hidden;whiteSpace=wrap;html=1;" vertex="1" parent="K_28fzQqX-i3X8EkiXgM-27">
          <mxGeometry width="30" height="30" as="geometry">
            <mxRectangle width="30" height="30" as="alternateBounds" />
          </mxGeometry>
        </mxCell>
        <mxCell id="K_28fzQqX-i3X8EkiXgM-29" value="stok" style="shape=partialRectangle;connectable=0;fillColor=none;top=0;left=0;bottom=0;right=0;align=left;spacingLeft=6;overflow=hidden;whiteSpace=wrap;html=1;" vertex="1" parent="K_28fzQqX-i3X8EkiXgM-27">
          <mxGeometry x="30" width="150" height="30" as="geometry">
            <mxRectangle width="150" height="30" as="alternateBounds" />
          </mxGeometry>
        </mxCell>
        <mxCell id="jHatPj7MSSWRf7zsIFgX-1" value="" style="shape=tableRow;horizontal=0;startSize=0;swimlaneHead=0;swimlaneBody=0;fillColor=none;collapsible=0;dropTarget=0;points=[[0,0.5],[1,0.5]];portConstraint=eastwest;top=0;left=0;right=0;bottom=0;" parent="386rh_wT6ISxh9mVD8ys-1" vertex="1">
          <mxGeometry y="180" width="180" height="30" as="geometry" />
        </mxCell>
        <mxCell id="jHatPj7MSSWRf7zsIFgX-2" value="" style="shape=partialRectangle;connectable=0;fillColor=none;top=0;left=0;bottom=0;right=0;editable=1;overflow=hidden;whiteSpace=wrap;html=1;" parent="jHatPj7MSSWRf7zsIFgX-1" vertex="1">
          <mxGeometry width="30" height="30" as="geometry">
            <mxRectangle width="30" height="30" as="alternateBounds" />
          </mxGeometry>
        </mxCell>
        <mxCell id="jHatPj7MSSWRf7zsIFgX-3" value="tanggal_masuk" style="shape=partialRectangle;connectable=0;fillColor=none;top=0;left=0;bottom=0;right=0;align=left;spacingLeft=6;overflow=hidden;whiteSpace=wrap;html=1;" parent="jHatPj7MSSWRf7zsIFgX-1" vertex="1">
          <mxGeometry x="30" width="150" height="30" as="geometry">
            <mxRectangle width="150" height="30" as="alternateBounds" />
          </mxGeometry>
        </mxCell>
        <mxCell id="386rh_wT6ISxh9mVD8ys-33" value="" style="edgeStyle=orthogonalEdgeStyle;fontSize=12;html=1;endArrow=ERoneToMany;rounded=0;entryX=1;entryY=0.5;entryDx=0;entryDy=0;exitX=0;exitY=0.5;exitDx=0;exitDy=0;" parent="1" source="386rh_wT6ISxh9mVD8ys-5" target="oNRNMGum88ENgTCuDUTT-82" edge="1">
          <mxGeometry width="100" height="100" relative="1" as="geometry">
            <mxPoint x="755" y="550" as="sourcePoint" />
            <mxPoint x="855" y="450" as="targetPoint" />
            <Array as="points">
              <mxPoint x="405" y="425" />
              <mxPoint x="405" y="545" />
            </Array>
          </mxGeometry>
        </mxCell>
        <mxCell id="386rh_wT6ISxh9mVD8ys-34" value="" style="edgeStyle=orthogonalEdgeStyle;fontSize=12;html=1;endArrow=ERzeroToMany;endFill=1;rounded=0;entryX=0;entryY=0.5;entryDx=0;entryDy=0;exitX=1;exitY=0.5;exitDx=0;exitDy=0;" parent="1" source="386rh_wT6ISxh9mVD8ys-30" target="oNRNMGum88ENgTCuDUTT-95" edge="1">
          <mxGeometry width="100" height="100" relative="1" as="geometry">
            <mxPoint x="755" y="550" as="sourcePoint" />
            <mxPoint x="855" y="450" as="targetPoint" />
            <Array as="points">
              <mxPoint x="665" y="455" />
              <mxPoint x="665" y="610" />
              <mxPoint x="405" y="610" />
              <mxPoint x="405" y="725" />
            </Array>
          </mxGeometry>
        </mxCell>
        <mxCell id="3W62L7bZJ84r9zqRgwdt-1" value="Requisition Order" style="shape=table;startSize=30;container=1;collapsible=1;childLayout=tableLayout;fixedRows=1;rowLines=0;fontStyle=1;align=center;resizeLast=1;html=1;fillColor=#fad7ac;strokeColor=#b46504;" vertex="1" parent="1">
          <mxGeometry x="175" y="200" width="180" height="240" as="geometry">
            <mxRectangle x="100" y="320" width="90" height="30" as="alternateBounds" />
          </mxGeometry>
        </mxCell>
        <mxCell id="3W62L7bZJ84r9zqRgwdt-2" value="" style="shape=tableRow;horizontal=0;startSize=0;swimlaneHead=0;swimlaneBody=0;fillColor=none;collapsible=0;dropTarget=0;points=[[0,0.5],[1,0.5]];portConstraint=eastwest;top=0;left=0;right=0;bottom=1;" vertex="1" parent="3W62L7bZJ84r9zqRgwdt-1">
          <mxGeometry y="30" width="180" height="30" as="geometry" />
        </mxCell>
        <mxCell id="3W62L7bZJ84r9zqRgwdt-3" value="PK" style="shape=partialRectangle;connectable=0;fillColor=none;top=0;left=0;bottom=0;right=0;fontStyle=1;overflow=hidden;whiteSpace=wrap;html=1;" vertex="1" parent="3W62L7bZJ84r9zqRgwdt-2">
          <mxGeometry width="30" height="30" as="geometry">
            <mxRectangle width="30" height="30" as="alternateBounds" />
          </mxGeometry>
        </mxCell>
        <mxCell id="3W62L7bZJ84r9zqRgwdt-4" value="id_requisition_order" style="shape=partialRectangle;connectable=0;fillColor=none;top=0;left=0;bottom=0;right=0;align=left;spacingLeft=6;fontStyle=5;overflow=hidden;whiteSpace=wrap;html=1;" vertex="1" parent="3W62L7bZJ84r9zqRgwdt-2">
          <mxGeometry x="30" width="150" height="30" as="geometry">
            <mxRectangle width="150" height="30" as="alternateBounds" />
          </mxGeometry>
        </mxCell>
        <mxCell id="3W62L7bZJ84r9zqRgwdt-5" value="" style="shape=tableRow;horizontal=0;startSize=0;swimlaneHead=0;swimlaneBody=0;fillColor=none;collapsible=0;dropTarget=0;points=[[0,0.5],[1,0.5]];portConstraint=eastwest;top=0;left=0;right=0;bottom=0;" vertex="1" parent="3W62L7bZJ84r9zqRgwdt-1">
          <mxGeometry y="60" width="180" height="30" as="geometry" />
        </mxCell>
        <mxCell id="3W62L7bZJ84r9zqRgwdt-6" value="FK" style="shape=partialRectangle;connectable=0;fillColor=none;top=0;left=0;bottom=0;right=0;editable=1;overflow=hidden;whiteSpace=wrap;html=1;" vertex="1" parent="3W62L7bZJ84r9zqRgwdt-5">
          <mxGeometry width="30" height="30" as="geometry">
            <mxRectangle width="30" height="30" as="alternateBounds" />
          </mxGeometry>
        </mxCell>
        <mxCell id="3W62L7bZJ84r9zqRgwdt-7" value="id_user" style="shape=partialRectangle;connectable=0;fillColor=none;top=0;left=0;bottom=0;right=0;align=left;spacingLeft=6;overflow=hidden;whiteSpace=wrap;html=1;" vertex="1" parent="3W62L7bZJ84r9zqRgwdt-5">
          <mxGeometry x="30" width="150" height="30" as="geometry">
            <mxRectangle width="150" height="30" as="alternateBounds" />
          </mxGeometry>
        </mxCell>
        <mxCell id="3W62L7bZJ84r9zqRgwdt-8" value="" style="shape=tableRow;horizontal=0;startSize=0;swimlaneHead=0;swimlaneBody=0;fillColor=none;collapsible=0;dropTarget=0;points=[[0,0.5],[1,0.5]];portConstraint=eastwest;top=0;left=0;right=0;bottom=0;" vertex="1" parent="3W62L7bZJ84r9zqRgwdt-1">
          <mxGeometry y="90" width="180" height="30" as="geometry" />
        </mxCell>
        <mxCell id="3W62L7bZJ84r9zqRgwdt-9" value="FK" style="shape=partialRectangle;connectable=0;fillColor=none;top=0;left=0;bottom=0;right=0;editable=1;overflow=hidden;whiteSpace=wrap;html=1;" vertex="1" parent="3W62L7bZJ84r9zqRgwdt-8">
          <mxGeometry width="30" height="30" as="geometry">
            <mxRectangle width="30" height="30" as="alternateBounds" />
          </mxGeometry>
        </mxCell>
        <mxCell id="3W62L7bZJ84r9zqRgwdt-10" value="id_detail_supplier" style="shape=partialRectangle;connectable=0;fillColor=none;top=0;left=0;bottom=0;right=0;align=left;spacingLeft=6;overflow=hidden;whiteSpace=wrap;html=1;" vertex="1" parent="3W62L7bZJ84r9zqRgwdt-8">
          <mxGeometry x="30" width="150" height="30" as="geometry">
            <mxRectangle width="150" height="30" as="alternateBounds" />
          </mxGeometry>
        </mxCell>
        <mxCell id="3W62L7bZJ84r9zqRgwdt-11" value="" style="shape=tableRow;horizontal=0;startSize=0;swimlaneHead=0;swimlaneBody=0;fillColor=none;collapsible=0;dropTarget=0;points=[[0,0.5],[1,0.5]];portConstraint=eastwest;top=0;left=0;right=0;bottom=0;" vertex="1" parent="3W62L7bZJ84r9zqRgwdt-1">
          <mxGeometry y="120" width="180" height="30" as="geometry" />
        </mxCell>
        <mxCell id="3W62L7bZJ84r9zqRgwdt-12" value="" style="shape=partialRectangle;connectable=0;fillColor=none;top=0;left=0;bottom=0;right=0;editable=1;overflow=hidden;whiteSpace=wrap;html=1;" vertex="1" parent="3W62L7bZJ84r9zqRgwdt-11">
          <mxGeometry width="30" height="30" as="geometry">
            <mxRectangle width="30" height="30" as="alternateBounds" />
          </mxGeometry>
        </mxCell>
        <mxCell id="3W62L7bZJ84r9zqRgwdt-13" value="kode" style="shape=partialRectangle;connectable=0;fillColor=none;top=0;left=0;bottom=0;right=0;align=left;spacingLeft=6;overflow=hidden;whiteSpace=wrap;html=1;" vertex="1" parent="3W62L7bZJ84r9zqRgwdt-11">
          <mxGeometry x="30" width="150" height="30" as="geometry">
            <mxRectangle width="150" height="30" as="alternateBounds" />
          </mxGeometry>
        </mxCell>
        <mxCell id="3W62L7bZJ84r9zqRgwdt-14" value="" style="shape=tableRow;horizontal=0;startSize=0;swimlaneHead=0;swimlaneBody=0;fillColor=none;collapsible=0;dropTarget=0;points=[[0,0.5],[1,0.5]];portConstraint=eastwest;top=0;left=0;right=0;bottom=0;" vertex="1" parent="3W62L7bZJ84r9zqRgwdt-1">
          <mxGeometry y="150" width="180" height="30" as="geometry" />
        </mxCell>
        <mxCell id="3W62L7bZJ84r9zqRgwdt-15" value="" style="shape=partialRectangle;connectable=0;fillColor=none;top=0;left=0;bottom=0;right=0;editable=1;overflow=hidden;whiteSpace=wrap;html=1;" vertex="1" parent="3W62L7bZJ84r9zqRgwdt-14">
          <mxGeometry width="30" height="30" as="geometry">
            <mxRectangle width="30" height="30" as="alternateBounds" />
          </mxGeometry>
        </mxCell>
        <mxCell id="3W62L7bZJ84r9zqRgwdt-16" value="stok_diminta" style="shape=partialRectangle;connectable=0;fillColor=none;top=0;left=0;bottom=0;right=0;align=left;spacingLeft=6;overflow=hidden;whiteSpace=wrap;html=1;" vertex="1" parent="3W62L7bZJ84r9zqRgwdt-14">
          <mxGeometry x="30" width="150" height="30" as="geometry">
            <mxRectangle width="150" height="30" as="alternateBounds" />
          </mxGeometry>
        </mxCell>
        <mxCell id="3W62L7bZJ84r9zqRgwdt-18" value="" style="shape=tableRow;horizontal=0;startSize=0;swimlaneHead=0;swimlaneBody=0;fillColor=none;collapsible=0;dropTarget=0;points=[[0,0.5],[1,0.5]];portConstraint=eastwest;top=0;left=0;right=0;bottom=0;" vertex="1" parent="3W62L7bZJ84r9zqRgwdt-1">
          <mxGeometry y="180" width="180" height="30" as="geometry" />
        </mxCell>
        <mxCell id="3W62L7bZJ84r9zqRgwdt-19" value="" style="shape=partialRectangle;connectable=0;fillColor=none;top=0;left=0;bottom=0;right=0;editable=1;overflow=hidden;whiteSpace=wrap;html=1;" vertex="1" parent="3W62L7bZJ84r9zqRgwdt-18">
          <mxGeometry width="30" height="30" as="geometry">
            <mxRectangle width="30" height="30" as="alternateBounds" />
          </mxGeometry>
        </mxCell>
        <mxCell id="3W62L7bZJ84r9zqRgwdt-20" value="stok_diterima" style="shape=partialRectangle;connectable=0;fillColor=none;top=0;left=0;bottom=0;right=0;align=left;spacingLeft=6;overflow=hidden;whiteSpace=wrap;html=1;" vertex="1" parent="3W62L7bZJ84r9zqRgwdt-18">
          <mxGeometry x="30" width="150" height="30" as="geometry">
            <mxRectangle width="150" height="30" as="alternateBounds" />
          </mxGeometry>
        </mxCell>
        <mxCell id="3W62L7bZJ84r9zqRgwdt-21" value="" style="shape=tableRow;horizontal=0;startSize=0;swimlaneHead=0;swimlaneBody=0;fillColor=none;collapsible=0;dropTarget=0;points=[[0,0.5],[1,0.5]];portConstraint=eastwest;top=0;left=0;right=0;bottom=0;" vertex="1" parent="3W62L7bZJ84r9zqRgwdt-1">
          <mxGeometry y="210" width="180" height="30" as="geometry" />
        </mxCell>
        <mxCell id="3W62L7bZJ84r9zqRgwdt-22" value="" style="shape=partialRectangle;connectable=0;fillColor=none;top=0;left=0;bottom=0;right=0;editable=1;overflow=hidden;whiteSpace=wrap;html=1;" vertex="1" parent="3W62L7bZJ84r9zqRgwdt-21">
          <mxGeometry width="30" height="30" as="geometry">
            <mxRectangle width="30" height="30" as="alternateBounds" />
          </mxGeometry>
        </mxCell>
        <mxCell id="3W62L7bZJ84r9zqRgwdt-23" value="status" style="shape=partialRectangle;connectable=0;fillColor=none;top=0;left=0;bottom=0;right=0;align=left;spacingLeft=6;overflow=hidden;whiteSpace=wrap;html=1;" vertex="1" parent="3W62L7bZJ84r9zqRgwdt-21">
          <mxGeometry x="30" width="150" height="30" as="geometry">
            <mxRectangle width="150" height="30" as="alternateBounds" />
          </mxGeometry>
        </mxCell>
        <mxCell id="3W62L7bZJ84r9zqRgwdt-17" value="" style="edgeStyle=orthogonalEdgeStyle;fontSize=12;html=1;endArrow=ERzeroToMany;startArrow=ERmandOne;rounded=0;entryX=1;entryY=0.5;entryDx=0;entryDy=0;exitX=0;exitY=0.5;exitDx=0;exitDy=0;" edge="1" parent="1" source="oNRNMGum88ENgTCuDUTT-158" target="oNRNMGum88ENgTCuDUTT-309">
          <mxGeometry width="100" height="100" relative="1" as="geometry">
            <mxPoint x="625" y="370" as="sourcePoint" />
            <mxPoint x="825" y="470" as="targetPoint" />
          </mxGeometry>
        </mxCell>
        <mxCell id="3W62L7bZJ84r9zqRgwdt-24" value="" style="edgeStyle=orthogonalEdgeStyle;fontSize=12;html=1;endArrow=ERoneToMany;startArrow=ERmandOne;rounded=0;entryX=0;entryY=0.5;entryDx=0;entryDy=0;exitX=1;exitY=0.5;exitDx=0;exitDy=0;" edge="1" parent="1" source="3W62L7bZJ84r9zqRgwdt-8" target="K_28fzQqX-i3X8EkiXgM-36">
          <mxGeometry width="100" height="100" relative="1" as="geometry">
            <mxPoint x="385" y="460" as="sourcePoint" />
            <mxPoint x="485" y="360" as="targetPoint" />
            <Array as="points">
              <mxPoint x="405" y="305" />
              <mxPoint x="405" y="395" />
            </Array>
          </mxGeometry>
        </mxCell>
        <mxCell id="3W62L7bZJ84r9zqRgwdt-25" value="" style="edgeStyle=orthogonalEdgeStyle;fontSize=12;html=1;endArrow=ERmandOne;startArrow=ERmandOne;rounded=0;entryX=0;entryY=0.5;entryDx=0;entryDy=0;exitX=1;exitY=0.5;exitDx=0;exitDy=0;" edge="1" parent="1" source="3W62L7bZJ84r9zqRgwdt-5" target="oNRNMGum88ENgTCuDUTT-164">
          <mxGeometry width="100" height="100" relative="1" as="geometry">
            <mxPoint x="465" y="420" as="sourcePoint" />
            <mxPoint x="565" y="320" as="targetPoint" />
            <Array as="points">
              <mxPoint x="525" y="275" />
              <mxPoint x="525" y="315" />
            </Array>
          </mxGeometry>
        </mxCell>
      </root>
    </mxGraphModel>
  </diagram>
  <diagram id="Bj7VrcRMlCe0kzy3T0Eu" name="Logic">
    <mxGraphModel dx="1735" dy="1322" grid="1" gridSize="10" guides="1" tooltips="1" connect="1" arrows="1" fold="1" page="1" pageScale="1" pageWidth="1600" pageHeight="1100" math="0" shadow="0">
      <root>
        <mxCell id="0" />
        <mxCell id="1" parent="0" />
        <mxCell id="rwwv87yoNLZWLdSUjKX5-1" value="Gudang" style="rounded=0;whiteSpace=wrap;html=1;fontStyle=1;fillColor=#b0e3e6;strokeColor=#0e8088;" parent="1" vertex="1">
          <mxGeometry x="285" y="873" width="120" height="50" as="geometry" />
        </mxCell>
        <mxCell id="ayybZfI3yNq1WqQChviC-14" value="id_gudang" style="ellipse;whiteSpace=wrap;html=1;align=center;fontStyle=5;" parent="1" vertex="1">
          <mxGeometry x="215" y="783" width="120" height="50" as="geometry" />
        </mxCell>
        <mxCell id="0Fy91IMjB39m8yj7MSOE-1" style="rounded=0;orthogonalLoop=1;jettySize=auto;html=1;exitX=1;exitY=0.5;exitDx=0;exitDy=0;entryX=0;entryY=0.5;entryDx=0;entryDy=0;endArrow=none;endFill=0;" parent="1" source="ayybZfI3yNq1WqQChviC-15" target="rwwv87yoNLZWLdSUjKX5-1" edge="1">
          <mxGeometry relative="1" as="geometry" />
        </mxCell>
        <mxCell id="ayybZfI3yNq1WqQChviC-15" value="nama" style="ellipse;whiteSpace=wrap;html=1;align=center;" parent="1" vertex="1">
          <mxGeometry x="80" y="903" width="120" height="50" as="geometry" />
        </mxCell>
        <mxCell id="ayybZfI3yNq1WqQChviC-16" value="alamat" style="ellipse;whiteSpace=wrap;html=1;align=center;" parent="1" vertex="1">
          <mxGeometry x="150" y="973" width="120" height="50" as="geometry" />
        </mxCell>
        <mxCell id="ayybZfI3yNq1WqQChviC-17" value="kapasitas" style="ellipse;whiteSpace=wrap;html=1;align=center;" parent="1" vertex="1">
          <mxGeometry x="285" y="973" width="120" height="50" as="geometry" />
        </mxCell>
        <mxCell id="0Fy91IMjB39m8yj7MSOE-3" value="" style="endArrow=none;html=1;rounded=0;entryX=0.25;entryY=1;entryDx=0;entryDy=0;exitX=1;exitY=0;exitDx=0;exitDy=0;" parent="1" source="ayybZfI3yNq1WqQChviC-16" target="rwwv87yoNLZWLdSUjKX5-1" edge="1">
          <mxGeometry relative="1" as="geometry">
            <mxPoint x="325" y="963" as="sourcePoint" />
            <mxPoint x="485" y="963" as="targetPoint" />
          </mxGeometry>
        </mxCell>
        <mxCell id="0Fy91IMjB39m8yj7MSOE-4" value="" style="endArrow=none;html=1;rounded=0;exitX=0.5;exitY=0;exitDx=0;exitDy=0;entryX=0.5;entryY=1;entryDx=0;entryDy=0;" parent="1" source="ayybZfI3yNq1WqQChviC-17" target="rwwv87yoNLZWLdSUjKX5-1" edge="1">
          <mxGeometry relative="1" as="geometry">
            <mxPoint x="277" y="970" as="sourcePoint" />
            <mxPoint x="345" y="933" as="targetPoint" />
          </mxGeometry>
        </mxCell>
        <mxCell id="0Fy91IMjB39m8yj7MSOE-5" style="rounded=0;orthogonalLoop=1;jettySize=auto;html=1;exitX=0.5;exitY=1;exitDx=0;exitDy=0;entryX=0.25;entryY=0;entryDx=0;entryDy=0;endArrow=none;endFill=0;" parent="1" source="ayybZfI3yNq1WqQChviC-14" target="rwwv87yoNLZWLdSUjKX5-1" edge="1">
          <mxGeometry relative="1" as="geometry">
            <mxPoint x="265" y="908" as="sourcePoint" />
            <mxPoint x="295" y="908" as="targetPoint" />
          </mxGeometry>
        </mxCell>
        <mxCell id="5Ov3-BcwQZc67okUBNgD-2" style="rounded=0;orthogonalLoop=1;jettySize=auto;html=1;exitX=0.5;exitY=1;exitDx=0;exitDy=0;entryX=0;entryY=0;entryDx=0;entryDy=0;endArrow=none;endFill=0;" parent="1" source="qMK9OlydBrGS7IBfI18N-20" target="5Ov3-BcwQZc67okUBNgD-1" edge="1">
          <mxGeometry relative="1" as="geometry" />
        </mxCell>
        <mxCell id="qMK9OlydBrGS7IBfI18N-20" value="Barang" style="rounded=0;whiteSpace=wrap;html=1;fontStyle=1;fillColor=#b0e3e6;strokeColor=#0e8088;" parent="1" vertex="1">
          <mxGeometry x="710" y="873" width="120" height="50" as="geometry" />
        </mxCell>
        <mxCell id="qMK9OlydBrGS7IBfI18N-21" value="id_barang" style="ellipse;whiteSpace=wrap;html=1;align=center;fontStyle=5;" parent="1" vertex="1">
          <mxGeometry x="590" y="788" width="120" height="50" as="geometry" />
        </mxCell>
        <mxCell id="qMK9OlydBrGS7IBfI18N-22" style="rounded=0;orthogonalLoop=1;jettySize=auto;html=1;exitX=0;exitY=0;exitDx=0;exitDy=0;entryX=0.75;entryY=1;entryDx=0;entryDy=0;endArrow=none;endFill=0;" parent="1" source="5Ov3-BcwQZc67okUBNgD-3" target="qMK9OlydBrGS7IBfI18N-20" edge="1">
          <mxGeometry relative="1" as="geometry">
            <mxPoint x="882.3232964096424" y="960.4272396980878" as="sourcePoint" />
          </mxGeometry>
        </mxCell>
        <mxCell id="qMK9OlydBrGS7IBfI18N-24" value="nama" style="ellipse;whiteSpace=wrap;html=1;align=center;" parent="1" vertex="1">
          <mxGeometry x="535" y="953" width="120" height="50" as="geometry" />
        </mxCell>
        <mxCell id="qMK9OlydBrGS7IBfI18N-25" value="deskripsi" style="ellipse;whiteSpace=wrap;html=1;align=center;" parent="1" vertex="1">
          <mxGeometry x="633" y="1003" width="120" height="50" as="geometry" />
        </mxCell>
        <mxCell id="qMK9OlydBrGS7IBfI18N-26" value="" style="endArrow=none;html=1;rounded=0;entryX=0.25;entryY=1;entryDx=0;entryDy=0;exitX=1;exitY=0;exitDx=0;exitDy=0;" parent="1" source="qMK9OlydBrGS7IBfI18N-24" target="qMK9OlydBrGS7IBfI18N-20" edge="1">
          <mxGeometry relative="1" as="geometry">
            <mxPoint x="750" y="963" as="sourcePoint" />
            <mxPoint x="910" y="963" as="targetPoint" />
          </mxGeometry>
        </mxCell>
        <mxCell id="qMK9OlydBrGS7IBfI18N-27" value="" style="endArrow=none;html=1;rounded=0;exitX=1;exitY=0;exitDx=0;exitDy=0;entryX=0.5;entryY=1;entryDx=0;entryDy=0;" parent="1" source="qMK9OlydBrGS7IBfI18N-25" target="qMK9OlydBrGS7IBfI18N-20" edge="1">
          <mxGeometry relative="1" as="geometry">
            <mxPoint x="702" y="970" as="sourcePoint" />
            <mxPoint x="770" y="933" as="targetPoint" />
          </mxGeometry>
        </mxCell>
        <mxCell id="qMK9OlydBrGS7IBfI18N-28" style="rounded=0;orthogonalLoop=1;jettySize=auto;html=1;exitX=1;exitY=1;exitDx=0;exitDy=0;entryX=0.25;entryY=0;entryDx=0;entryDy=0;endArrow=none;endFill=0;" parent="1" source="qMK9OlydBrGS7IBfI18N-21" target="qMK9OlydBrGS7IBfI18N-20" edge="1">
          <mxGeometry relative="1" as="geometry">
            <mxPoint x="690" y="908" as="sourcePoint" />
            <mxPoint x="720" y="908" as="targetPoint" />
          </mxGeometry>
        </mxCell>
        <mxCell id="qMK9OlydBrGS7IBfI18N-29" value="kode" style="ellipse;whiteSpace=wrap;html=1;align=center;" parent="1" vertex="1">
          <mxGeometry x="830" y="783" width="120" height="50" as="geometry" />
        </mxCell>
        <mxCell id="qMK9OlydBrGS7IBfI18N-30" style="rounded=0;orthogonalLoop=1;jettySize=auto;html=1;exitX=0;exitY=1;exitDx=0;exitDy=0;entryX=0.75;entryY=0;entryDx=0;entryDy=0;endArrow=none;endFill=0;" parent="1" source="qMK9OlydBrGS7IBfI18N-29" target="qMK9OlydBrGS7IBfI18N-20" edge="1">
          <mxGeometry relative="1" as="geometry">
            <mxPoint x="710" y="843" as="sourcePoint" />
            <mxPoint x="750" y="883" as="targetPoint" />
          </mxGeometry>
        </mxCell>
        <mxCell id="qMK9OlydBrGS7IBfI18N-48" style="rounded=0;orthogonalLoop=1;jettySize=auto;html=1;exitX=1;exitY=0.5;exitDx=0;exitDy=0;entryX=0;entryY=0.5;entryDx=0;entryDy=0;endArrow=none;endFill=0;" parent="1" source="qMK9OlydBrGS7IBfI18N-43" target="qMK9OlydBrGS7IBfI18N-20" edge="1">
          <mxGeometry relative="1" as="geometry" />
        </mxCell>
        <mxCell id="qMK9OlydBrGS7IBfI18N-43" value="Simpan" style="shape=rhombus;perimeter=rhombusPerimeter;whiteSpace=wrap;html=1;align=center;fillColor=#fff2cc;strokeColor=#d6b656;" parent="1" vertex="1">
          <mxGeometry x="485" y="868" width="120" height="60" as="geometry" />
        </mxCell>
        <mxCell id="qMK9OlydBrGS7IBfI18N-46" value="" style="endArrow=none;html=1;rounded=0;exitX=1;exitY=0.5;exitDx=0;exitDy=0;entryX=0;entryY=0.5;entryDx=0;entryDy=0;" parent="1" source="rwwv87yoNLZWLdSUjKX5-1" target="qMK9OlydBrGS7IBfI18N-43" edge="1">
          <mxGeometry relative="1" as="geometry">
            <mxPoint x="485" y="768" as="sourcePoint" />
            <mxPoint x="645" y="768" as="targetPoint" />
          </mxGeometry>
        </mxCell>
        <mxCell id="qMK9OlydBrGS7IBfI18N-50" value="1" style="text;strokeColor=none;fillColor=none;spacingLeft=4;spacingRight=4;overflow=hidden;rotatable=0;points=[[0,0.5],[1,0.5]];portConstraint=eastwest;fontSize=12;whiteSpace=wrap;html=1;" parent="1" vertex="1">
          <mxGeometry x="405" y="873" width="40" height="30" as="geometry" />
        </mxCell>
        <mxCell id="qMK9OlydBrGS7IBfI18N-51" value="M" style="text;strokeColor=none;fillColor=none;spacingLeft=4;spacingRight=4;overflow=hidden;rotatable=0;points=[[0,0.5],[1,0.5]];portConstraint=eastwest;fontSize=12;whiteSpace=wrap;html=1;" parent="1" vertex="1">
          <mxGeometry x="685" y="898" width="40" height="30" as="geometry" />
        </mxCell>
        <mxCell id="qjiDxoTlDZO8q0ESatUQ-13" style="rounded=0;orthogonalLoop=1;jettySize=auto;html=1;exitX=1;exitY=0.5;exitDx=0;exitDy=0;entryX=0;entryY=0.5;entryDx=0;entryDy=0;endArrow=none;endFill=0;" parent="1" source="HXkbWWUPHE0IksSUaqDb-1" target="qjiDxoTlDZO8q0ESatUQ-18" edge="1">
          <mxGeometry relative="1" as="geometry">
            <mxPoint x="485" y="593" as="targetPoint" />
          </mxGeometry>
        </mxCell>
        <mxCell id="HXkbWWUPHE0IksSUaqDb-1" value="Supplier" style="rounded=0;whiteSpace=wrap;html=1;fontStyle=1;fillColor=#b0e3e6;strokeColor=#0e8088;" parent="1" vertex="1">
          <mxGeometry x="270" y="568" width="120" height="50" as="geometry" />
        </mxCell>
        <mxCell id="HXkbWWUPHE0IksSUaqDb-2" value="id_supplier" style="ellipse;whiteSpace=wrap;html=1;align=center;fontStyle=5;" parent="1" vertex="1">
          <mxGeometry x="200" y="478" width="120" height="50" as="geometry" />
        </mxCell>
        <mxCell id="HXkbWWUPHE0IksSUaqDb-3" style="edgeStyle=orthogonalEdgeStyle;rounded=0;orthogonalLoop=1;jettySize=auto;html=1;exitX=1;exitY=0.5;exitDx=0;exitDy=0;entryX=0;entryY=0.5;entryDx=0;entryDy=0;endArrow=none;endFill=0;" parent="1" source="HXkbWWUPHE0IksSUaqDb-4" target="HXkbWWUPHE0IksSUaqDb-1" edge="1">
          <mxGeometry relative="1" as="geometry" />
        </mxCell>
        <mxCell id="HXkbWWUPHE0IksSUaqDb-4" value="nama" style="ellipse;whiteSpace=wrap;html=1;align=center;" parent="1" vertex="1">
          <mxGeometry x="120" y="568" width="120" height="50" as="geometry" />
        </mxCell>
        <mxCell id="HXkbWWUPHE0IksSUaqDb-5" value="alamat" style="ellipse;whiteSpace=wrap;html=1;align=center;" parent="1" vertex="1">
          <mxGeometry x="150" y="648" width="120" height="50" as="geometry" />
        </mxCell>
        <mxCell id="HXkbWWUPHE0IksSUaqDb-6" value="telp" style="ellipse;whiteSpace=wrap;html=1;align=center;" parent="1" vertex="1">
          <mxGeometry x="290" y="668" width="120" height="50" as="geometry" />
        </mxCell>
        <mxCell id="HXkbWWUPHE0IksSUaqDb-7" value="" style="endArrow=none;html=1;rounded=0;entryX=0.25;entryY=1;entryDx=0;entryDy=0;exitX=1;exitY=0;exitDx=0;exitDy=0;" parent="1" source="HXkbWWUPHE0IksSUaqDb-5" target="HXkbWWUPHE0IksSUaqDb-1" edge="1">
          <mxGeometry relative="1" as="geometry">
            <mxPoint x="310" y="658" as="sourcePoint" />
            <mxPoint x="470" y="658" as="targetPoint" />
          </mxGeometry>
        </mxCell>
        <mxCell id="HXkbWWUPHE0IksSUaqDb-8" value="" style="endArrow=none;html=1;rounded=0;exitX=0.5;exitY=0;exitDx=0;exitDy=0;entryX=0.5;entryY=1;entryDx=0;entryDy=0;" parent="1" source="HXkbWWUPHE0IksSUaqDb-6" target="HXkbWWUPHE0IksSUaqDb-1" edge="1">
          <mxGeometry relative="1" as="geometry">
            <mxPoint x="262" y="665" as="sourcePoint" />
            <mxPoint x="330" y="628" as="targetPoint" />
          </mxGeometry>
        </mxCell>
        <mxCell id="HXkbWWUPHE0IksSUaqDb-9" style="rounded=0;orthogonalLoop=1;jettySize=auto;html=1;exitX=0.5;exitY=1;exitDx=0;exitDy=0;entryX=0.25;entryY=0;entryDx=0;entryDy=0;endArrow=none;endFill=0;" parent="1" source="HXkbWWUPHE0IksSUaqDb-2" target="HXkbWWUPHE0IksSUaqDb-1" edge="1">
          <mxGeometry relative="1" as="geometry">
            <mxPoint x="250" y="603" as="sourcePoint" />
            <mxPoint x="280" y="603" as="targetPoint" />
          </mxGeometry>
        </mxCell>
        <mxCell id="HXkbWWUPHE0IksSUaqDb-10" value="1" style="text;strokeColor=none;fillColor=none;spacingLeft=4;spacingRight=4;overflow=hidden;rotatable=0;points=[[0,0.5],[1,0.5]];portConstraint=eastwest;fontSize=12;whiteSpace=wrap;html=1;" parent="1" vertex="1">
          <mxGeometry x="390" y="568" width="40" height="30" as="geometry" />
        </mxCell>
        <mxCell id="qjiDxoTlDZO8q0ESatUQ-14" style="rounded=0;orthogonalLoop=1;jettySize=auto;html=1;exitX=1;exitY=0.5;exitDx=0;exitDy=0;entryX=0;entryY=0.5;entryDx=0;entryDy=0;endArrow=none;endFill=0;" parent="1" source="qjiDxoTlDZO8q0ESatUQ-18" target="qjiDxoTlDZO8q0ESatUQ-17" edge="1">
          <mxGeometry relative="1" as="geometry">
            <mxPoint x="605" y="593" as="sourcePoint" />
            <mxPoint x="705" y="593" as="targetPoint" />
          </mxGeometry>
        </mxCell>
        <mxCell id="qjiDxoTlDZO8q0ESatUQ-15" value="M" style="text;strokeColor=none;fillColor=none;spacingLeft=4;spacingRight=4;overflow=hidden;rotatable=0;points=[[0,0.5],[1,0.5]];portConstraint=eastwest;fontSize=12;whiteSpace=wrap;html=1;" parent="1" vertex="1">
          <mxGeometry x="686" y="593" width="40" height="30" as="geometry" />
        </mxCell>
        <mxCell id="qjiDxoTlDZO8q0ESatUQ-16" value="&lt;b&gt;id_detail_supplier&lt;/b&gt;" style="ellipse;whiteSpace=wrap;html=1;align=center;" parent="1" vertex="1">
          <mxGeometry x="840" y="458" width="120" height="50" as="geometry" />
        </mxCell>
        <mxCell id="YaRwy_OCQdykD8FLdBgJ-7" style="edgeStyle=orthogonalEdgeStyle;rounded=0;orthogonalLoop=1;jettySize=auto;html=1;exitX=0.5;exitY=0;exitDx=0;exitDy=0;entryX=1;entryY=0.5;entryDx=0;entryDy=0;endArrow=none;endFill=0;" edge="1" parent="1" source="qjiDxoTlDZO8q0ESatUQ-17" target="YaRwy_OCQdykD8FLdBgJ-10">
          <mxGeometry relative="1" as="geometry">
            <mxPoint x="605" y="428" as="targetPoint" />
            <Array as="points">
              <mxPoint x="770" y="428" />
            </Array>
          </mxGeometry>
        </mxCell>
        <mxCell id="qjiDxoTlDZO8q0ESatUQ-17" value="Detail Supplier" style="shape=ext;margin=3;double=1;whiteSpace=wrap;html=1;align=center;fontStyle=1;fillColor=#b0e3e6;strokeColor=#0e8088;" parent="1" vertex="1">
          <mxGeometry x="710" y="568" width="120" height="50" as="geometry" />
        </mxCell>
        <mxCell id="qjiDxoTlDZO8q0ESatUQ-18" value="Memiliki" style="shape=rhombus;double=1;perimeter=rhombusPerimeter;whiteSpace=wrap;html=1;align=center;fillColor=#fff2cc;strokeColor=#d6b656;" parent="1" vertex="1">
          <mxGeometry x="485" y="563" width="120" height="60" as="geometry" />
        </mxCell>
        <mxCell id="qjiDxoTlDZO8q0ESatUQ-19" value="Memiliki" style="shape=rhombus;double=1;perimeter=rhombusPerimeter;whiteSpace=wrap;html=1;align=center;fillColor=#b1ddf0;strokeColor=#10739e;" parent="1" vertex="1">
          <mxGeometry x="710" y="698" width="120" height="60" as="geometry" />
        </mxCell>
        <mxCell id="qjiDxoTlDZO8q0ESatUQ-20" style="rounded=0;orthogonalLoop=1;jettySize=auto;html=1;exitX=0.5;exitY=0;exitDx=0;exitDy=0;entryX=0.5;entryY=1;entryDx=0;entryDy=0;endArrow=none;endFill=0;" parent="1" source="qjiDxoTlDZO8q0ESatUQ-19" target="qjiDxoTlDZO8q0ESatUQ-17" edge="1">
          <mxGeometry relative="1" as="geometry">
            <mxPoint x="615" y="603" as="sourcePoint" />
            <mxPoint x="720" y="603" as="targetPoint" />
          </mxGeometry>
        </mxCell>
        <mxCell id="qjiDxoTlDZO8q0ESatUQ-21" style="rounded=0;orthogonalLoop=1;jettySize=auto;html=1;exitX=0.5;exitY=1;exitDx=0;exitDy=0;entryX=0.5;entryY=0;entryDx=0;entryDy=0;endArrow=none;endFill=0;" parent="1" source="qjiDxoTlDZO8q0ESatUQ-19" target="qMK9OlydBrGS7IBfI18N-20" edge="1">
          <mxGeometry relative="1" as="geometry">
            <mxPoint x="780" y="688" as="sourcePoint" />
            <mxPoint x="780" y="628" as="targetPoint" />
          </mxGeometry>
        </mxCell>
        <mxCell id="qjiDxoTlDZO8q0ESatUQ-22" style="rounded=0;orthogonalLoop=1;jettySize=auto;html=1;exitX=0.75;exitY=0;exitDx=0;exitDy=0;entryX=0;entryY=1;entryDx=0;entryDy=0;endArrow=none;endFill=0;" parent="1" source="qjiDxoTlDZO8q0ESatUQ-17" target="qjiDxoTlDZO8q0ESatUQ-16" edge="1">
          <mxGeometry relative="1" as="geometry">
            <mxPoint x="780" y="708" as="sourcePoint" />
            <mxPoint x="780" y="628" as="targetPoint" />
          </mxGeometry>
        </mxCell>
        <mxCell id="dZCsui2r0lX3Jz5nLhso-4" style="rounded=0;orthogonalLoop=1;jettySize=auto;html=1;exitX=0;exitY=1;exitDx=0;exitDy=0;entryX=1;entryY=0.25;entryDx=0;entryDy=0;endArrow=none;endFill=0;" parent="1" source="dZCsui2r0lX3Jz5nLhso-5" target="dZCsui2r0lX3Jz5nLhso-21" edge="1">
          <mxGeometry relative="1" as="geometry">
            <mxPoint x="1280" y="923" as="targetPoint" />
          </mxGeometry>
        </mxCell>
        <mxCell id="dZCsui2r0lX3Jz5nLhso-5" value="deskripsi" style="ellipse;whiteSpace=wrap;html=1;align=center;" parent="1" vertex="1">
          <mxGeometry x="1350" y="797" width="120" height="50" as="geometry" />
        </mxCell>
        <mxCell id="dZCsui2r0lX3Jz5nLhso-6" value="quantity" style="ellipse;whiteSpace=wrap;html=1;align=center;" parent="1" vertex="1">
          <mxGeometry x="1340" y="938" width="120" height="50" as="geometry" />
        </mxCell>
        <mxCell id="dZCsui2r0lX3Jz5nLhso-7" value="" style="endArrow=none;html=1;rounded=0;entryX=1;entryY=0.75;entryDx=0;entryDy=0;exitX=0;exitY=0;exitDx=0;exitDy=0;" parent="1" source="dZCsui2r0lX3Jz5nLhso-6" target="dZCsui2r0lX3Jz5nLhso-21" edge="1">
          <mxGeometry relative="1" as="geometry">
            <mxPoint x="1230" y="963" as="sourcePoint" />
            <mxPoint x="1220" y="923" as="targetPoint" />
          </mxGeometry>
        </mxCell>
        <mxCell id="dZCsui2r0lX3Jz5nLhso-8" value="" style="endArrow=none;html=1;rounded=0;exitX=0;exitY=0.5;exitDx=0;exitDy=0;entryX=1;entryY=0.5;entryDx=0;entryDy=0;" parent="1" source="dZCsui2r0lX3Jz5nLhso-14" target="dZCsui2r0lX3Jz5nLhso-21" edge="1">
          <mxGeometry relative="1" as="geometry">
            <mxPoint x="1182" y="970" as="sourcePoint" />
            <mxPoint x="1250" y="923" as="targetPoint" />
          </mxGeometry>
        </mxCell>
        <mxCell id="dZCsui2r0lX3Jz5nLhso-14" value="harga_jual" style="ellipse;whiteSpace=wrap;html=1;align=center;" parent="1" vertex="1">
          <mxGeometry x="1370" y="873" width="120" height="50" as="geometry" />
        </mxCell>
        <mxCell id="dZCsui2r0lX3Jz5nLhso-15" value="M" style="text;strokeColor=none;fillColor=none;spacingLeft=4;spacingRight=4;overflow=hidden;rotatable=0;points=[[0,0.5],[1,0.5]];portConstraint=eastwest;fontSize=12;whiteSpace=wrap;html=1;" parent="1" vertex="1">
          <mxGeometry x="775" y="618" width="40" height="30" as="geometry" />
        </mxCell>
        <mxCell id="dZCsui2r0lX3Jz5nLhso-17" value="1" style="text;strokeColor=none;fillColor=none;spacingLeft=4;spacingRight=4;overflow=hidden;rotatable=0;points=[[0,0.5],[1,0.5]];portConstraint=eastwest;fontSize=12;whiteSpace=wrap;html=1;" parent="1" vertex="1">
          <mxGeometry x="750" y="847" width="40" height="30" as="geometry" />
        </mxCell>
        <mxCell id="dZCsui2r0lX3Jz5nLhso-21" value="Detail Transaksi" style="shape=ext;margin=3;double=1;whiteSpace=wrap;html=1;align=center;fontStyle=1;fillColor=#b0e3e6;strokeColor=#0e8088;" parent="1" vertex="1">
          <mxGeometry x="1190" y="873" width="120" height="50" as="geometry" />
        </mxCell>
        <mxCell id="YLcp0d9bzZT_eZQPpw71-1" style="rounded=0;orthogonalLoop=1;jettySize=auto;html=1;exitX=1;exitY=0.5;exitDx=0;exitDy=0;entryX=0;entryY=0.5;entryDx=0;entryDy=0;endArrow=none;endFill=0;" parent="1" source="qMK9OlydBrGS7IBfI18N-20" target="hN59f1czIIVqPoP6WWqO-1" edge="1">
          <mxGeometry relative="1" as="geometry">
            <mxPoint x="615" y="908" as="sourcePoint" />
            <mxPoint x="975" y="898" as="targetPoint" />
          </mxGeometry>
        </mxCell>
        <mxCell id="YLcp0d9bzZT_eZQPpw71-2" style="rounded=0;orthogonalLoop=1;jettySize=auto;html=1;exitX=1;exitY=0.5;exitDx=0;exitDy=0;entryX=0;entryY=0.5;entryDx=0;entryDy=0;endArrow=none;endFill=0;" parent="1" source="hN59f1czIIVqPoP6WWqO-1" target="dZCsui2r0lX3Jz5nLhso-21" edge="1">
          <mxGeometry relative="1" as="geometry">
            <mxPoint x="1095" y="898" as="sourcePoint" />
            <mxPoint x="985" y="908" as="targetPoint" />
          </mxGeometry>
        </mxCell>
        <mxCell id="YLcp0d9bzZT_eZQPpw71-3" value="1" style="text;strokeColor=none;fillColor=none;spacingLeft=4;spacingRight=4;overflow=hidden;rotatable=0;points=[[0,0.5],[1,0.5]];portConstraint=eastwest;fontSize=12;whiteSpace=wrap;html=1;" parent="1" vertex="1">
          <mxGeometry x="830" y="873" width="40" height="30" as="geometry" />
        </mxCell>
        <mxCell id="YLcp0d9bzZT_eZQPpw71-4" value="M" style="text;strokeColor=none;fillColor=none;spacingLeft=4;spacingRight=4;overflow=hidden;rotatable=0;points=[[0,0.5],[1,0.5]];portConstraint=eastwest;fontSize=12;whiteSpace=wrap;html=1;" parent="1" vertex="1">
          <mxGeometry x="1165" y="898" width="40" height="30" as="geometry" />
        </mxCell>
        <mxCell id="5Ov3-BcwQZc67okUBNgD-1" value="merek" style="ellipse;whiteSpace=wrap;html=1;align=center;" parent="1" vertex="1">
          <mxGeometry x="780" y="1003" width="120" height="50" as="geometry" />
        </mxCell>
        <mxCell id="5Ov3-BcwQZc67okUBNgD-3" value="total_stok" style="ellipse;whiteSpace=wrap;html=1;align=center;dashed=1;" parent="1" vertex="1">
          <mxGeometry x="895" y="953" width="120" height="50" as="geometry" />
        </mxCell>
        <mxCell id="5Ov3-BcwQZc67okUBNgD-5" style="rounded=0;orthogonalLoop=1;jettySize=auto;html=1;exitX=0;exitY=0;exitDx=0;exitDy=0;endArrow=none;endFill=0;" parent="1" source="5Ov3-BcwQZc67okUBNgD-4" target="qjiDxoTlDZO8q0ESatUQ-17" edge="1">
          <mxGeometry relative="1" as="geometry" />
        </mxCell>
        <mxCell id="5Ov3-BcwQZc67okUBNgD-4" value="tanggal_masuk" style="ellipse;whiteSpace=wrap;html=1;align=center;" parent="1" vertex="1">
          <mxGeometry x="860" y="608" width="120" height="50" as="geometry" />
        </mxCell>
        <mxCell id="hN59f1czIIVqPoP6WWqO-1" value="Memiliki" style="shape=rhombus;double=1;perimeter=rhombusPerimeter;whiteSpace=wrap;html=1;align=center;fillColor=#fff2cc;strokeColor=#d6b656;" parent="1" vertex="1">
          <mxGeometry x="950" y="868" width="120" height="60" as="geometry" />
        </mxCell>
        <mxCell id="PEecS91Dg1TRCzgOI9JA-1" value="Transaksi" style="rounded=0;whiteSpace=wrap;html=1;fontStyle=1;fillColor=#b0e3e6;strokeColor=#0e8088;" parent="1" vertex="1">
          <mxGeometry x="1190" y="218" width="120" height="50" as="geometry" />
        </mxCell>
        <mxCell id="PEecS91Dg1TRCzgOI9JA-3" style="rounded=0;orthogonalLoop=1;jettySize=auto;html=1;exitX=0.5;exitY=1;exitDx=0;exitDy=0;entryX=0.5;entryY=0;entryDx=0;entryDy=0;endArrow=none;endFill=0;" parent="1" source="PEecS91Dg1TRCzgOI9JA-2" target="dZCsui2r0lX3Jz5nLhso-21" edge="1">
          <mxGeometry relative="1" as="geometry" />
        </mxCell>
        <mxCell id="PEecS91Dg1TRCzgOI9JA-4" style="rounded=0;orthogonalLoop=1;jettySize=auto;html=1;exitX=0.5;exitY=0;exitDx=0;exitDy=0;entryX=0.5;entryY=1;entryDx=0;entryDy=0;endArrow=none;endFill=0;" parent="1" source="PEecS91Dg1TRCzgOI9JA-2" target="PEecS91Dg1TRCzgOI9JA-1" edge="1">
          <mxGeometry relative="1" as="geometry" />
        </mxCell>
        <mxCell id="PEecS91Dg1TRCzgOI9JA-2" value="Memiliki" style="shape=rhombus;double=1;perimeter=rhombusPerimeter;whiteSpace=wrap;html=1;align=center;fillColor=#fff2cc;strokeColor=#d6b656;" parent="1" vertex="1">
          <mxGeometry x="1190" y="508" width="120" height="60" as="geometry" />
        </mxCell>
        <mxCell id="PEecS91Dg1TRCzgOI9JA-5" value="M" style="text;strokeColor=none;fillColor=none;spacingLeft=4;spacingRight=4;overflow=hidden;rotatable=0;points=[[0,0.5],[1,0.5]];portConstraint=eastwest;fontSize=12;whiteSpace=wrap;html=1;" parent="1" vertex="1">
          <mxGeometry x="1227" y="848" width="40" height="30" as="geometry" />
        </mxCell>
        <mxCell id="PEecS91Dg1TRCzgOI9JA-6" value="1" style="text;strokeColor=none;fillColor=none;spacingLeft=4;spacingRight=4;overflow=hidden;rotatable=0;points=[[0,0.5],[1,0.5]];portConstraint=eastwest;fontSize=12;whiteSpace=wrap;html=1;" parent="1" vertex="1">
          <mxGeometry x="1255" y="268" width="40" height="30" as="geometry" />
        </mxCell>
        <mxCell id="PEecS91Dg1TRCzgOI9JA-7" value="nama_pembeli" style="ellipse;whiteSpace=wrap;html=1;align=center;" parent="1" vertex="1">
          <mxGeometry x="1267" y="48" width="120" height="50" as="geometry" />
        </mxCell>
        <mxCell id="PEecS91Dg1TRCzgOI9JA-8" style="rounded=0;orthogonalLoop=1;jettySize=auto;html=1;exitX=0.5;exitY=1;exitDx=0;exitDy=0;entryX=0.5;entryY=0;entryDx=0;entryDy=0;endArrow=none;endFill=0;" parent="1" source="PEecS91Dg1TRCzgOI9JA-7" target="PEecS91Dg1TRCzgOI9JA-1" edge="1">
          <mxGeometry relative="1" as="geometry">
            <mxPoint x="1155" y="58" as="targetPoint" />
            <Array as="points">
              <mxPoint x="1290" y="155" />
            </Array>
          </mxGeometry>
        </mxCell>
        <mxCell id="x0wJQgDrjb0trMUSVFkg-26" value="metode_&lt;br&gt;pembayaran" style="ellipse;whiteSpace=wrap;html=1;align=center;" parent="1" vertex="1">
          <mxGeometry x="1360" y="98" width="120" height="50" as="geometry" />
        </mxCell>
        <mxCell id="x0wJQgDrjb0trMUSVFkg-27" style="rounded=0;orthogonalLoop=1;jettySize=auto;html=1;exitX=0;exitY=1;exitDx=0;exitDy=0;entryX=0.75;entryY=0;entryDx=0;entryDy=0;endArrow=none;endFill=0;" parent="1" source="x0wJQgDrjb0trMUSVFkg-26" target="PEecS91Dg1TRCzgOI9JA-1" edge="1">
          <mxGeometry relative="1" as="geometry">
            <mxPoint x="1400" y="238" as="targetPoint" />
          </mxGeometry>
        </mxCell>
        <mxCell id="x0wJQgDrjb0trMUSVFkg-28" value="harga_pengiriman" style="ellipse;whiteSpace=wrap;html=1;align=center;" parent="1" vertex="1">
          <mxGeometry x="1400" y="178" width="120" height="50" as="geometry" />
        </mxCell>
        <mxCell id="x0wJQgDrjb0trMUSVFkg-29" style="rounded=0;orthogonalLoop=1;jettySize=auto;html=1;exitX=0;exitY=0.5;exitDx=0;exitDy=0;entryX=1;entryY=0.25;entryDx=0;entryDy=0;endArrow=none;endFill=0;" parent="1" source="x0wJQgDrjb0trMUSVFkg-28" target="PEecS91Dg1TRCzgOI9JA-1" edge="1">
          <mxGeometry relative="1" as="geometry">
            <mxPoint x="1550" y="238" as="targetPoint" />
          </mxGeometry>
        </mxCell>
        <mxCell id="x0wJQgDrjb0trMUSVFkg-30" value="tanggal_transaksi" style="ellipse;whiteSpace=wrap;html=1;align=center;" parent="1" vertex="1">
          <mxGeometry x="1330" y="328" width="120" height="50" as="geometry" />
        </mxCell>
        <mxCell id="x0wJQgDrjb0trMUSVFkg-31" style="rounded=0;orthogonalLoop=1;jettySize=auto;html=1;exitX=0;exitY=0;exitDx=0;exitDy=0;entryX=0.75;entryY=1;entryDx=0;entryDy=0;endArrow=none;endFill=0;" parent="1" source="x0wJQgDrjb0trMUSVFkg-30" target="PEecS91Dg1TRCzgOI9JA-1" edge="1">
          <mxGeometry relative="1" as="geometry">
            <mxPoint x="1360" y="438" as="targetPoint" />
          </mxGeometry>
        </mxCell>
        <mxCell id="x0wJQgDrjb0trMUSVFkg-32" value="agen_pengiriman" style="ellipse;whiteSpace=wrap;html=1;align=center;" parent="1" vertex="1">
          <mxGeometry x="1400" y="258" width="120" height="50" as="geometry" />
        </mxCell>
        <mxCell id="x0wJQgDrjb0trMUSVFkg-33" style="rounded=0;orthogonalLoop=1;jettySize=auto;html=1;exitX=0;exitY=0.5;exitDx=0;exitDy=0;entryX=1;entryY=0.5;entryDx=0;entryDy=0;endArrow=none;endFill=0;" parent="1" source="x0wJQgDrjb0trMUSVFkg-32" target="PEecS91Dg1TRCzgOI9JA-1" edge="1">
          <mxGeometry relative="1" as="geometry">
            <mxPoint x="1520" y="368" as="targetPoint" />
          </mxGeometry>
        </mxCell>
        <mxCell id="x0wJQgDrjb0trMUSVFkg-37" value="User" style="rounded=0;whiteSpace=wrap;html=1;fontStyle=1;fillColor=#b0e3e6;strokeColor=#0e8088;" parent="1" vertex="1">
          <mxGeometry x="760" y="218" width="120" height="50" as="geometry" />
        </mxCell>
        <mxCell id="x0wJQgDrjb0trMUSVFkg-38" value="1" style="text;strokeColor=none;fillColor=none;spacingLeft=4;spacingRight=4;overflow=hidden;rotatable=0;points=[[0,0.5],[1,0.5]];portConstraint=eastwest;fontSize=12;whiteSpace=wrap;html=1;" parent="1" vertex="1">
          <mxGeometry x="880" y="217" width="40" height="30" as="geometry" />
        </mxCell>
        <mxCell id="x0wJQgDrjb0trMUSVFkg-39" value="nama" style="ellipse;whiteSpace=wrap;html=1;align=center;" parent="1" vertex="1">
          <mxGeometry x="775" y="78" width="120" height="50" as="geometry" />
        </mxCell>
        <mxCell id="x0wJQgDrjb0trMUSVFkg-40" style="rounded=0;orthogonalLoop=1;jettySize=auto;html=1;exitX=0.5;exitY=1;exitDx=0;exitDy=0;entryX=0.5;entryY=0;entryDx=0;entryDy=0;endArrow=none;endFill=0;" parent="1" source="x0wJQgDrjb0trMUSVFkg-39" target="x0wJQgDrjb0trMUSVFkg-37" edge="1">
          <mxGeometry relative="1" as="geometry">
            <mxPoint x="718" y="58" as="targetPoint" />
          </mxGeometry>
        </mxCell>
        <mxCell id="x0wJQgDrjb0trMUSVFkg-41" value="&lt;u&gt;&lt;b&gt;id_user&lt;/b&gt;&lt;/u&gt;" style="ellipse;whiteSpace=wrap;html=1;align=center;" parent="1" vertex="1">
          <mxGeometry x="895" y="128" width="120" height="50" as="geometry" />
        </mxCell>
        <mxCell id="x0wJQgDrjb0trMUSVFkg-42" style="rounded=0;orthogonalLoop=1;jettySize=auto;html=1;exitX=0;exitY=1;exitDx=0;exitDy=0;entryX=0.75;entryY=0;entryDx=0;entryDy=0;endArrow=none;endFill=0;" parent="1" source="x0wJQgDrjb0trMUSVFkg-41" target="x0wJQgDrjb0trMUSVFkg-37" edge="1">
          <mxGeometry relative="1" as="geometry">
            <mxPoint x="963" y="238" as="targetPoint" />
          </mxGeometry>
        </mxCell>
        <mxCell id="x0wJQgDrjb0trMUSVFkg-43" value="alamat" style="ellipse;whiteSpace=wrap;html=1;align=center;" parent="1" vertex="1">
          <mxGeometry x="633" y="118" width="120" height="50" as="geometry" />
        </mxCell>
        <mxCell id="x0wJQgDrjb0trMUSVFkg-44" style="rounded=0;orthogonalLoop=1;jettySize=auto;html=1;exitX=1;exitY=1;exitDx=0;exitDy=0;endArrow=none;endFill=0;" parent="1" source="x0wJQgDrjb0trMUSVFkg-43" target="x0wJQgDrjb0trMUSVFkg-37" edge="1">
          <mxGeometry relative="1" as="geometry">
            <mxPoint x="1113" y="238" as="targetPoint" />
          </mxGeometry>
        </mxCell>
        <mxCell id="UBko9laup36CzJLvTWSW-2" value="telp" style="ellipse;whiteSpace=wrap;html=1;align=center;" parent="1" vertex="1">
          <mxGeometry x="895" y="295" width="120" height="50" as="geometry" />
        </mxCell>
        <mxCell id="UBko9laup36CzJLvTWSW-3" style="rounded=0;orthogonalLoop=1;jettySize=auto;html=1;exitX=0;exitY=0;exitDx=0;exitDy=0;entryX=0.75;entryY=1;entryDx=0;entryDy=0;endArrow=none;endFill=0;" parent="1" source="UBko9laup36CzJLvTWSW-2" target="x0wJQgDrjb0trMUSVFkg-37" edge="1">
          <mxGeometry relative="1" as="geometry">
            <mxPoint x="420" y="210.5" as="targetPoint" />
          </mxGeometry>
        </mxCell>
        <mxCell id="UBko9laup36CzJLvTWSW-4" value="password" style="ellipse;whiteSpace=wrap;html=1;align=center;" parent="1" vertex="1">
          <mxGeometry x="780" y="335" width="120" height="50" as="geometry" />
        </mxCell>
        <mxCell id="UBko9laup36CzJLvTWSW-5" style="rounded=0;orthogonalLoop=1;jettySize=auto;html=1;exitX=0.5;exitY=0;exitDx=0;exitDy=0;entryX=0.5;entryY=1;entryDx=0;entryDy=0;endArrow=none;endFill=0;" parent="1" source="UBko9laup36CzJLvTWSW-4" target="x0wJQgDrjb0trMUSVFkg-37" edge="1">
          <mxGeometry relative="1" as="geometry">
            <mxPoint x="736.5" y="318" as="targetPoint" />
          </mxGeometry>
        </mxCell>
        <mxCell id="Mo8RyYd_nK0I801pKhqk-3" value="Lakukan" style="shape=rhombus;perimeter=rhombusPerimeter;whiteSpace=wrap;html=1;align=center;fillColor=#fff2cc;strokeColor=#d6b656;" parent="1" vertex="1">
          <mxGeometry x="970" y="213" width="120" height="60" as="geometry" />
        </mxCell>
        <mxCell id="Mo8RyYd_nK0I801pKhqk-4" value="role" style="ellipse;whiteSpace=wrap;html=1;align=center;" parent="1" vertex="1">
          <mxGeometry x="646" y="308" width="120" height="50" as="geometry" />
        </mxCell>
        <mxCell id="Mo8RyYd_nK0I801pKhqk-5" style="rounded=0;orthogonalLoop=1;jettySize=auto;html=1;exitX=1;exitY=0;exitDx=0;exitDy=0;entryX=0.25;entryY=1;entryDx=0;entryDy=0;endArrow=none;endFill=0;" parent="1" source="Mo8RyYd_nK0I801pKhqk-4" target="x0wJQgDrjb0trMUSVFkg-37" edge="1">
          <mxGeometry relative="1" as="geometry">
            <mxPoint x="815" y="468" as="targetPoint" />
          </mxGeometry>
        </mxCell>
        <mxCell id="IAB_Gr573rKRZmtOeH48-1" value="&lt;b&gt;&lt;u&gt;id_transaksi&lt;/u&gt;&lt;/b&gt;" style="ellipse;whiteSpace=wrap;html=1;align=center;" parent="1" vertex="1">
          <mxGeometry x="1060" y="128" width="120" height="50" as="geometry" />
        </mxCell>
        <mxCell id="IAB_Gr573rKRZmtOeH48-2" style="rounded=0;orthogonalLoop=1;jettySize=auto;html=1;exitX=1;exitY=1;exitDx=0;exitDy=0;entryX=0.25;entryY=0;entryDx=0;entryDy=0;endArrow=none;endFill=0;" parent="1" source="IAB_Gr573rKRZmtOeH48-1" target="PEecS91Dg1TRCzgOI9JA-1" edge="1">
          <mxGeometry relative="1" as="geometry">
            <mxPoint x="1105" y="218" as="targetPoint" />
          </mxGeometry>
        </mxCell>
        <mxCell id="W67th7xeQ2_iD0w41zIv-1" style="rounded=0;orthogonalLoop=1;jettySize=auto;html=1;exitX=0;exitY=0.5;exitDx=0;exitDy=0;entryX=1;entryY=0.5;entryDx=0;entryDy=0;endArrow=none;endFill=0;" parent="1" source="PEecS91Dg1TRCzgOI9JA-1" target="Mo8RyYd_nK0I801pKhqk-3" edge="1">
          <mxGeometry relative="1" as="geometry">
            <mxPoint x="1260" y="518" as="sourcePoint" />
            <mxPoint x="1260" y="278" as="targetPoint" />
          </mxGeometry>
        </mxCell>
        <mxCell id="W67th7xeQ2_iD0w41zIv-2" style="rounded=0;orthogonalLoop=1;jettySize=auto;html=1;exitX=0;exitY=0.5;exitDx=0;exitDy=0;entryX=1;entryY=0.5;entryDx=0;entryDy=0;endArrow=none;endFill=0;" parent="1" source="Mo8RyYd_nK0I801pKhqk-3" target="x0wJQgDrjb0trMUSVFkg-37" edge="1">
          <mxGeometry relative="1" as="geometry">
            <mxPoint x="1200" y="253" as="sourcePoint" />
            <mxPoint x="1100" y="253" as="targetPoint" />
          </mxGeometry>
        </mxCell>
        <mxCell id="W67th7xeQ2_iD0w41zIv-3" value="M" style="text;strokeColor=none;fillColor=none;spacingLeft=4;spacingRight=4;overflow=hidden;rotatable=0;points=[[0,0.5],[1,0.5]];portConstraint=eastwest;fontSize=12;whiteSpace=wrap;html=1;" parent="1" vertex="1">
          <mxGeometry x="1168" y="242" width="40" height="30" as="geometry" />
        </mxCell>
        <mxCell id="UB3lPsEYisxSch9Tbdwg-1" value="kode" style="ellipse;whiteSpace=wrap;html=1;align=center;" vertex="1" parent="1">
          <mxGeometry x="95" y="833" width="120" height="50" as="geometry" />
        </mxCell>
        <mxCell id="UB3lPsEYisxSch9Tbdwg-3" style="rounded=0;orthogonalLoop=1;jettySize=auto;html=1;exitX=1;exitY=1;exitDx=0;exitDy=0;entryX=0;entryY=0.25;entryDx=0;entryDy=0;endArrow=none;endFill=0;" edge="1" parent="1" source="UB3lPsEYisxSch9Tbdwg-1" target="rwwv87yoNLZWLdSUjKX5-1">
          <mxGeometry relative="1" as="geometry">
            <mxPoint x="210" y="938" as="sourcePoint" />
            <mxPoint x="295" y="908" as="targetPoint" />
          </mxGeometry>
        </mxCell>
        <mxCell id="Fs9mgtTgDxmrs95rsi3i-1" value="harga_beli" style="ellipse;whiteSpace=wrap;html=1;align=center;" vertex="1" parent="1">
          <mxGeometry x="860" y="525" width="120" height="53" as="geometry" />
        </mxCell>
        <mxCell id="Fs9mgtTgDxmrs95rsi3i-2" style="rounded=0;orthogonalLoop=1;jettySize=auto;html=1;exitX=0;exitY=1;exitDx=0;exitDy=0;entryX=1;entryY=0.5;entryDx=0;entryDy=0;endArrow=none;endFill=0;" edge="1" parent="1" source="Fs9mgtTgDxmrs95rsi3i-1" target="qjiDxoTlDZO8q0ESatUQ-17">
          <mxGeometry relative="1" as="geometry">
            <mxPoint x="865" y="528" as="sourcePoint" />
            <mxPoint x="780" y="578" as="targetPoint" />
          </mxGeometry>
        </mxCell>
        <mxCell id="Fs9mgtTgDxmrs95rsi3i-3" value="stok" style="ellipse;whiteSpace=wrap;html=1;align=center;" vertex="1" parent="1">
          <mxGeometry x="840" y="675" width="120" height="50" as="geometry" />
        </mxCell>
        <mxCell id="Fs9mgtTgDxmrs95rsi3i-4" style="rounded=0;orthogonalLoop=1;jettySize=auto;html=1;exitX=0;exitY=0;exitDx=0;exitDy=0;endArrow=none;endFill=0;entryX=0.75;entryY=1;entryDx=0;entryDy=0;" edge="1" parent="1" source="Fs9mgtTgDxmrs95rsi3i-3" target="qjiDxoTlDZO8q0ESatUQ-17">
          <mxGeometry relative="1" as="geometry">
            <mxPoint x="887" y="625" as="sourcePoint" />
            <mxPoint x="840" y="616" as="targetPoint" />
          </mxGeometry>
        </mxCell>
        <mxCell id="HBLdVmmLZMLjzoAak-5u-2" value="kode" style="ellipse;whiteSpace=wrap;html=1;align=center;" vertex="1" parent="1">
          <mxGeometry x="350" y="485" width="120" height="50" as="geometry" />
        </mxCell>
        <mxCell id="HBLdVmmLZMLjzoAak-5u-3" style="rounded=0;orthogonalLoop=1;jettySize=auto;html=1;exitX=0.5;exitY=0;exitDx=0;exitDy=0;entryX=0;entryY=1;entryDx=0;entryDy=0;endArrow=none;endFill=0;" edge="1" parent="1" source="HXkbWWUPHE0IksSUaqDb-1" target="HBLdVmmLZMLjzoAak-5u-2">
          <mxGeometry relative="1" as="geometry">
            <mxPoint x="810" y="578" as="sourcePoint" />
            <mxPoint x="868" y="511" as="targetPoint" />
          </mxGeometry>
        </mxCell>
        <mxCell id="-kgGRpiOoJ_IT15Ti86r-1" value="&lt;b&gt;id_detail_transaksi&lt;/b&gt;" style="ellipse;whiteSpace=wrap;html=1;align=center;" vertex="1" parent="1">
          <mxGeometry x="1100" y="973" width="127" height="50" as="geometry" />
        </mxCell>
        <mxCell id="-kgGRpiOoJ_IT15Ti86r-3" value="satuan" style="ellipse;whiteSpace=wrap;html=1;align=center;" vertex="1" parent="1">
          <mxGeometry x="1240" y="988" width="120" height="50" as="geometry" />
        </mxCell>
        <mxCell id="s40fGGvzgeBDx1hNkj3w-1" value="" style="endArrow=none;html=1;rounded=0;entryX=0.75;entryY=1;entryDx=0;entryDy=0;exitX=0.5;exitY=0;exitDx=0;exitDy=0;" edge="1" parent="1" source="-kgGRpiOoJ_IT15Ti86r-3" target="dZCsui2r0lX3Jz5nLhso-21">
          <mxGeometry relative="1" as="geometry">
            <mxPoint x="1367" y="955" as="sourcePoint" />
            <mxPoint x="1320" y="921" as="targetPoint" />
          </mxGeometry>
        </mxCell>
        <mxCell id="s40fGGvzgeBDx1hNkj3w-2" value="" style="endArrow=none;html=1;rounded=0;entryX=0.5;entryY=1;entryDx=0;entryDy=0;exitX=1;exitY=0;exitDx=0;exitDy=0;" edge="1" parent="1" source="-kgGRpiOoJ_IT15Ti86r-1" target="dZCsui2r0lX3Jz5nLhso-21">
          <mxGeometry relative="1" as="geometry">
            <mxPoint x="1310" y="998" as="sourcePoint" />
            <mxPoint x="1290" y="933" as="targetPoint" />
          </mxGeometry>
        </mxCell>
        <mxCell id="_OMATSv6CPBXW2A7Wvbj-1" value="&lt;span&gt;&lt;span&gt;no_nota&lt;/span&gt;&lt;/span&gt;" style="ellipse;whiteSpace=wrap;html=1;align=center;fontStyle=0" vertex="1" parent="1">
          <mxGeometry x="1135" y="48" width="120" height="50" as="geometry" />
        </mxCell>
        <mxCell id="_OMATSv6CPBXW2A7Wvbj-3" style="rounded=0;orthogonalLoop=1;jettySize=auto;html=1;exitX=0.5;exitY=1;exitDx=0;exitDy=0;entryX=0.5;entryY=0;entryDx=0;entryDy=0;endArrow=none;endFill=0;" edge="1" parent="1" source="_OMATSv6CPBXW2A7Wvbj-1" target="PEecS91Dg1TRCzgOI9JA-1">
          <mxGeometry relative="1" as="geometry">
            <mxPoint x="1260" y="228" as="targetPoint" />
            <mxPoint x="1337" y="108" as="sourcePoint" />
            <Array as="points" />
          </mxGeometry>
        </mxCell>
        <mxCell id="YaRwy_OCQdykD8FLdBgJ-1" value="grand_total" style="ellipse;whiteSpace=wrap;html=1;align=center;dashed=1;" vertex="1" parent="1">
          <mxGeometry x="1060" y="308" width="120" height="50" as="geometry" />
        </mxCell>
        <mxCell id="YaRwy_OCQdykD8FLdBgJ-2" style="rounded=0;orthogonalLoop=1;jettySize=auto;html=1;exitX=1;exitY=0;exitDx=0;exitDy=0;entryX=0.25;entryY=1;entryDx=0;entryDy=0;endArrow=none;endFill=0;" edge="1" parent="1" source="YaRwy_OCQdykD8FLdBgJ-1" target="PEecS91Dg1TRCzgOI9JA-1">
          <mxGeometry relative="1" as="geometry">
            <mxPoint x="1290" y="278" as="targetPoint" />
            <mxPoint x="1357" y="345" as="sourcePoint" />
          </mxGeometry>
        </mxCell>
        <mxCell id="YaRwy_OCQdykD8FLdBgJ-4" style="rounded=0;orthogonalLoop=1;jettySize=auto;html=1;exitX=0.5;exitY=1;exitDx=0;exitDy=0;entryX=0.75;entryY=0;entryDx=0;entryDy=0;endArrow=none;endFill=0;" edge="1" parent="1" source="YaRwy_OCQdykD8FLdBgJ-3" target="dZCsui2r0lX3Jz5nLhso-21">
          <mxGeometry relative="1" as="geometry" />
        </mxCell>
        <mxCell id="YaRwy_OCQdykD8FLdBgJ-3" value="total" style="ellipse;whiteSpace=wrap;html=1;align=center;" vertex="1" parent="1">
          <mxGeometry x="1280" y="725" width="120" height="50" as="geometry" />
        </mxCell>
        <mxCell id="YaRwy_OCQdykD8FLdBgJ-5" value="Requisition &lt;br&gt;Order" style="rounded=0;whiteSpace=wrap;html=1;fontStyle=1;fillColor=#b0e3e6;strokeColor=#0e8088;" vertex="1" parent="1">
          <mxGeometry x="270" y="218" width="120" height="50" as="geometry" />
        </mxCell>
        <mxCell id="YaRwy_OCQdykD8FLdBgJ-8" style="edgeStyle=orthogonalEdgeStyle;rounded=0;orthogonalLoop=1;jettySize=auto;html=1;exitX=0;exitY=0.5;exitDx=0;exitDy=0;entryX=0.5;entryY=1;entryDx=0;entryDy=0;endArrow=none;endFill=0;" edge="1" parent="1" target="YaRwy_OCQdykD8FLdBgJ-5">
          <mxGeometry relative="1" as="geometry">
            <mxPoint x="485" y="428" as="sourcePoint" />
          </mxGeometry>
        </mxCell>
        <mxCell id="YaRwy_OCQdykD8FLdBgJ-10" value="Memiliki" style="shape=rhombus;perimeter=rhombusPerimeter;whiteSpace=wrap;html=1;align=center;fillColor=#fff2cc;strokeColor=#d6b656;" vertex="1" parent="1">
          <mxGeometry x="485" y="398" width="120" height="60" as="geometry" />
        </mxCell>
        <mxCell id="YaRwy_OCQdykD8FLdBgJ-12" style="edgeStyle=orthogonalEdgeStyle;rounded=0;orthogonalLoop=1;jettySize=auto;html=1;exitX=1;exitY=0.5;exitDx=0;exitDy=0;entryX=0;entryY=0.5;entryDx=0;entryDy=0;endArrow=none;endFill=0;" edge="1" parent="1" source="YaRwy_OCQdykD8FLdBgJ-11" target="x0wJQgDrjb0trMUSVFkg-37">
          <mxGeometry relative="1" as="geometry" />
        </mxCell>
        <mxCell id="YaRwy_OCQdykD8FLdBgJ-13" style="edgeStyle=orthogonalEdgeStyle;rounded=0;orthogonalLoop=1;jettySize=auto;html=1;exitX=0;exitY=0.5;exitDx=0;exitDy=0;entryX=1;entryY=0.5;entryDx=0;entryDy=0;endArrow=none;endFill=0;" edge="1" parent="1" source="YaRwy_OCQdykD8FLdBgJ-11" target="YaRwy_OCQdykD8FLdBgJ-5">
          <mxGeometry relative="1" as="geometry" />
        </mxCell>
        <mxCell id="YaRwy_OCQdykD8FLdBgJ-11" value="Lakukan" style="shape=rhombus;perimeter=rhombusPerimeter;whiteSpace=wrap;html=1;align=center;fillColor=#fff2cc;strokeColor=#d6b656;" vertex="1" parent="1">
          <mxGeometry x="485" y="213" width="120" height="60" as="geometry" />
        </mxCell>
        <mxCell id="vBHhp0PjaAXNdAtBBFdR-2" value="id_requisition_order" style="ellipse;whiteSpace=wrap;html=1;align=center;fontStyle=5;" vertex="1" parent="1">
          <mxGeometry x="300" y="105" width="150" height="50" as="geometry" />
        </mxCell>
        <mxCell id="vBHhp0PjaAXNdAtBBFdR-3" value="kode" style="ellipse;whiteSpace=wrap;html=1;align=center;" vertex="1" parent="1">
          <mxGeometry x="150" y="118" width="120" height="50" as="geometry" />
        </mxCell>
        <mxCell id="L1owdp18jIdUWjOtQwGk-1" value="stok_diminta" style="ellipse;whiteSpace=wrap;html=1;align=center;" vertex="1" parent="1">
          <mxGeometry x="95" y="278" width="120" height="50" as="geometry" />
        </mxCell>
        <mxCell id="L1owdp18jIdUWjOtQwGk-2" value="stok_diterima" style="ellipse;whiteSpace=wrap;html=1;align=center;" vertex="1" parent="1">
          <mxGeometry x="80" y="192" width="120" height="50" as="geometry" />
        </mxCell>
        <mxCell id="L1owdp18jIdUWjOtQwGk-3" value="status" style="ellipse;whiteSpace=wrap;html=1;align=center;" vertex="1" parent="1">
          <mxGeometry x="190" y="328" width="120" height="50" as="geometry" />
        </mxCell>
        <mxCell id="L1owdp18jIdUWjOtQwGk-4" style="rounded=0;orthogonalLoop=1;jettySize=auto;html=1;exitX=0.25;exitY=1;exitDx=0;exitDy=0;entryX=0.5;entryY=0;entryDx=0;entryDy=0;endArrow=none;endFill=0;" edge="1" parent="1" source="YaRwy_OCQdykD8FLdBgJ-5" target="L1owdp18jIdUWjOtQwGk-3">
          <mxGeometry relative="1" as="geometry">
            <mxPoint x="270" y="538" as="sourcePoint" />
            <mxPoint x="310" y="578" as="targetPoint" />
          </mxGeometry>
        </mxCell>
        <mxCell id="L1owdp18jIdUWjOtQwGk-5" style="rounded=0;orthogonalLoop=1;jettySize=auto;html=1;exitX=0;exitY=0.75;exitDx=0;exitDy=0;entryX=1;entryY=0;entryDx=0;entryDy=0;endArrow=none;endFill=0;" edge="1" parent="1" source="YaRwy_OCQdykD8FLdBgJ-5" target="L1owdp18jIdUWjOtQwGk-1">
          <mxGeometry relative="1" as="geometry">
            <mxPoint x="310" y="278" as="sourcePoint" />
            <mxPoint x="260" y="338" as="targetPoint" />
          </mxGeometry>
        </mxCell>
        <mxCell id="L1owdp18jIdUWjOtQwGk-6" style="rounded=0;orthogonalLoop=1;jettySize=auto;html=1;exitX=0;exitY=0.25;exitDx=0;exitDy=0;entryX=1;entryY=0.5;entryDx=0;entryDy=0;endArrow=none;endFill=0;" edge="1" parent="1" source="YaRwy_OCQdykD8FLdBgJ-5" target="L1owdp18jIdUWjOtQwGk-2">
          <mxGeometry relative="1" as="geometry">
            <mxPoint x="280" y="266" as="sourcePoint" />
            <mxPoint x="207" y="295" as="targetPoint" />
          </mxGeometry>
        </mxCell>
        <mxCell id="L1owdp18jIdUWjOtQwGk-7" style="rounded=0;orthogonalLoop=1;jettySize=auto;html=1;exitX=0.25;exitY=0;exitDx=0;exitDy=0;entryX=1;entryY=1;entryDx=0;entryDy=0;endArrow=none;endFill=0;" edge="1" parent="1" source="YaRwy_OCQdykD8FLdBgJ-5" target="vBHhp0PjaAXNdAtBBFdR-3">
          <mxGeometry relative="1" as="geometry">
            <mxPoint x="280" y="241" as="sourcePoint" />
            <mxPoint x="210" y="227" as="targetPoint" />
          </mxGeometry>
        </mxCell>
        <mxCell id="L1owdp18jIdUWjOtQwGk-8" style="rounded=0;orthogonalLoop=1;jettySize=auto;html=1;exitX=0.5;exitY=0;exitDx=0;exitDy=0;entryX=0.5;entryY=1;entryDx=0;entryDy=0;endArrow=none;endFill=0;" edge="1" parent="1" source="YaRwy_OCQdykD8FLdBgJ-5" target="vBHhp0PjaAXNdAtBBFdR-2">
          <mxGeometry relative="1" as="geometry">
            <mxPoint x="310" y="228" as="sourcePoint" />
            <mxPoint x="220" y="178" as="targetPoint" />
          </mxGeometry>
        </mxCell>
        <mxCell id="L1owdp18jIdUWjOtQwGk-9" value="M" style="text;strokeColor=none;fillColor=none;spacingLeft=4;spacingRight=4;overflow=hidden;rotatable=0;points=[[0,0.5],[1,0.5]];portConstraint=eastwest;fontSize=12;whiteSpace=wrap;html=1;" vertex="1" parent="1">
          <mxGeometry x="330" y="268" width="40" height="30" as="geometry" />
        </mxCell>
        <mxCell id="L1owdp18jIdUWjOtQwGk-10" value="1" style="text;strokeColor=none;fillColor=none;spacingLeft=4;spacingRight=4;overflow=hidden;rotatable=0;points=[[0,0.5],[1,0.5]];portConstraint=eastwest;fontSize=12;whiteSpace=wrap;html=1;" vertex="1" parent="1">
          <mxGeometry x="750" y="540" width="40" height="30" as="geometry" />
        </mxCell>
        <mxCell id="L1owdp18jIdUWjOtQwGk-12" value="M" style="text;strokeColor=none;fillColor=none;spacingLeft=4;spacingRight=4;overflow=hidden;rotatable=0;points=[[0,0.5],[1,0.5]];portConstraint=eastwest;fontSize=12;whiteSpace=wrap;html=1;" vertex="1" parent="1">
          <mxGeometry x="390" y="217" width="40" height="30" as="geometry" />
        </mxCell>
        <mxCell id="L1owdp18jIdUWjOtQwGk-13" value="1" style="text;strokeColor=none;fillColor=none;spacingLeft=4;spacingRight=4;overflow=hidden;rotatable=0;points=[[0,0.5],[1,0.5]];portConstraint=eastwest;fontSize=12;whiteSpace=wrap;html=1;" vertex="1" parent="1">
          <mxGeometry x="740" y="242" width="40" height="30" as="geometry" />
        </mxCell>
      </root>
    </mxGraphModel>
  </diagram>
</mxfile>
